<?xml version="1.0" encoding="utf-8"?>
<!-- Generator: Adobe Illustrator 16.0.0, SVG Export Plug-In . SVG Version: 6.00 Build 0)  -->
<!DOCTYPE svg PUBLIC "-//W3C//DTD SVG 1.1//EN" "http://www.w3.org/Graphics/SVG/1.1/DTD/svg11.dtd">
<svg version="1.1" id="bootstrap" xmlns="http://www.w3.org/2000/svg" xmlns:xlink="http://www.w3.org/1999/xlink" x="0px" y="0px"
	 width="55.44px" height="55.44px" viewBox="0 0 55.44 55.44" enable-background="new 0 0 55.44 55.44" xml:space="preserve">
<g>
	<path fill="#1BABC1" d="M38.93,10.75H16.15c-3,0-5.43,2.43-5.43,5.44V39.1c0,3,2.43,5.44,5.43,5.44h22.78c3,0,5.44-2.43,5.44-5.44
		V16.19C44.36,13.18,41.93,10.75,38.93,10.75z M34.67,36.64c-1.38,0.99-3.48,1.49-6.29,1.49h-9.05V17.19h8.19
		c2.94,0,5.06,0.44,6.38,1.32c1.32,0.88,1.98,2.28,1.98,4.22c0,1.02-0.24,1.89-0.72,2.61c-0.48,0.71-1.18,1.24-2.1,1.58
		c1.17,0.34,2.08,0.96,2.72,1.86c0.64,0.91,0.96,2.02,0.96,3.34C36.73,34.14,36.04,35.65,34.67,36.64z"/>
	<path fill="#1BABC1" d="M29.75,24.74c0.44-0.37,0.66-0.92,0.66-1.65c0-0.72-0.22-1.27-0.66-1.64c-0.44-0.38-1.1-0.57-1.96-0.57
		h-3.02v4.43h3.02C28.65,25.3,29.31,25.11,29.75,24.74z"/>
	<path fill="#1BABC1" d="M30.46,29.66c-0.55-0.46-1.37-0.69-2.48-0.69h-3.2v5.48h3.2c1.1,0,1.92-0.23,2.47-0.69
		c0.56-0.46,0.83-1.15,0.83-2.07C31.28,30.78,31,30.1,30.46,29.66z"/>
</g>
</svg>
