<?xml version="1.0" encoding="utf-8"?>
<!-- Generator: Adobe Illustrator 16.0.0, SVG Export Plug-In . SVG Version: 6.00 Build 0)  -->
<!DOCTYPE svg PUBLIC "-//W3C//DTD SVG 1.1//EN" "http://www.w3.org/Graphics/SVG/1.1/DTD/svg11.dtd">
<svg version="1.1" id="indesign" xmlns="http://www.w3.org/2000/svg" xmlns:xlink="http://www.w3.org/1999/xlink" x="0px" y="0px"
	 width="55.44px" height="55.44px" viewBox="0 0 55.44 55.44" enable-background="new 0 0 55.44 55.44" xml:space="preserve">
<g>
	<path fill="#1BABC1" d="M31.04,34.58c1.22,0,2.54-0.26,3.78-0.85c0.1-0.06,0.13-0.07,0.13-0.17c-0.07-0.55-0.07-1.05-0.07-1.46
		V18.63c0-0.07-0.03-0.11-0.14-0.11h-2.33c-0.07,0-0.14,0.04-0.14,0.14v3.83c-0.29-0.03-0.46-0.03-0.76-0.03
		c-3.64,0-5.92,2.68-5.91,6.12C25.58,32.61,27.86,34.58,31.04,34.58z M31.4,24.67c0.35,0,0.63,0.04,0.85,0.14v7.29
		c-0.29,0.13-0.66,0.17-1.02,0.17c-1.66,0-2.98-1.1-2.98-3.8C28.24,26.1,29.54,24.67,31.4,24.67z"/>
	<path fill="#1BABC1" d="M10.38,10.81v33.71h34.57V10.81H10.38z M43.51,43.08H11.83V12.25h31.68V43.08z"/>
	<path fill="#1BABC1" d="M20.62,34.36h2.22c0.16,0,0.19-0.04,0.19-0.19V18.69c0-0.13-0.06-0.17-0.17-0.17h-2.23
		c-0.11,0-0.19,0.04-0.19,0.19v15.47C20.44,34.29,20.48,34.36,20.62,34.36z"/>
</g>
</svg>
