<?xml version="1.0" encoding="utf-8"?>
<!-- Generator: Adobe Illustrator 16.0.0, SVG Export Plug-In . SVG Version: 6.00 Build 0)  -->
<!DOCTYPE svg PUBLIC "-//W3C//DTD SVG 1.1//EN" "http://www.w3.org/Graphics/SVG/1.1/DTD/svg11.dtd">
<svg version="1.1" id="wordpress" xmlns="http://www.w3.org/2000/svg" xmlns:xlink="http://www.w3.org/1999/xlink" x="0px" y="0px"
	 width="55.44px" height="55.44px" viewBox="0 0 55.44 55.44" enable-background="new 0 0 55.44 55.44" xml:space="preserve">
<g>
	<polygon fill="#1BABC1" points="33.18,42.38 33.18,42.38 33.18,42.38 	"/>
	<path fill="#1BABC1" d="M12.7,27.93c0,6.12,3.59,11.41,8.78,13.87v0l-7.4-20.23C13.19,23.5,12.7,25.66,12.7,27.93z"/>
	<path fill="#1BABC1" d="M20.79,19.6v0.92c0,0.08-0.07,0.15-0.15,0.15h-1.78c-0.2,0-0.28,0.12-0.21,0.33l5.57,16.41l3.39-10.23
		l-2.25-6.16c-0.08-0.22-0.18-0.34-0.53-0.34h-1.56c-0.08,0-0.15-0.07-0.15-0.15V19.6c0-0.08,0.07-0.16,0.15-0.15
		c2.9,0.13,5.82,0.13,8.76,0c0.08,0,0.15,0.07,0.15,0.15v0.92c0,0.08-0.07,0.15-0.15,0.15h-1.55c-0.31,0-0.41,0.14-0.32,0.39
		l5.48,16.15l2.01-6.13c2.43-7.41-2.08-8.2-1.97-11.88c0.05-1.82,1.39-2.62,2.73-2.58c-2.73-2.51-6.37-4.04-10.38-4.04h0l0,0
		c-5.4,0-10.14,2.79-12.87,7c1.74-0.02,3.61-0.04,5.48-0.14C20.72,19.45,20.79,19.52,20.79,19.6z"/>
	<path fill="#1BABC1" d="M28.04,10.09L28.04,10.09c-9.85,0-17.84,7.99-17.84,17.84c0,9.85,7.99,17.84,17.84,17.84
		c9.85,0,17.84-7.99,17.84-17.84C45.88,18.08,37.89,10.09,28.04,10.09z M28.04,44.71c-9.27,0-16.78-7.51-16.78-16.78
		c0-9.26,7.51-16.78,16.78-16.78c9.26,0,16.78,7.51,16.78,16.78C44.82,37.19,37.31,44.71,28.04,44.71z"/>
	<path fill="#1BABC1" d="M41.53,20.62L41.53,20.62c0.08,2.28-0.6,5.12-1.35,7.21L35.4,41.39c4.75-2.61,7.98-7.66,7.98-13.46
		C43.38,25.28,42.71,22.8,41.53,20.62z"/>
	<path fill="#1BABC1" d="M23.58,42.61c1.41,0.43,2.91,0.66,4.46,0.66c1.8,0,3.53-0.31,5.13-0.88l-4.87-13.32L23.58,42.61z"/>
</g>
</svg>
