<?xml version="1.0" encoding="utf-8"?>
<!-- Generator: Adobe Illustrator 16.0.0, SVG Export Plug-In . SVG Version: 6.00 Build 0)  -->
<!DOCTYPE svg PUBLIC "-//W3C//DTD SVG 1.1//EN" "http://www.w3.org/Graphics/SVG/1.1/DTD/svg11.dtd">
<svg version="1.1" id="css" xmlns="http://www.w3.org/2000/svg" xmlns:xlink="http://www.w3.org/1999/xlink" x="0px" y="0px"
	 width="55.44px" height="55.44px" viewBox="0 0 55.44 55.44" enable-background="new 0 0 55.44 55.44" xml:space="preserve">
<g>
	<path fill="#1BABC1" d="M14.44,16.21l2.35,26.38l10.55,2.93l10.58-2.93l2.35-26.37H14.44z M34.87,28.15l-0.08,0.87l-0.76,8.52
		l-0.05,0.55l-6.62,1.83v0l-0.01,0l-6.63-1.84L20.27,33h1.5h1.75l0.23,2.58l3.6,0.97l0,0l0,0l3.61-0.97l0.37-4.19h-3.97h-0.01h-7.23
		l-0.29-3.24h7.52h0.01h4.25l0.3-3.31h-4.55h-0.01h-7.81l-0.29-3.24h8.1h0.01h8.09L34.87,28.15z"/>
	<polygon fill="#1BABC1" points="24.44,12.32 22.16,12.32 22.16,10.68 24.44,10.68 24.44,9.04 20.52,9.04 20.52,13.96 24.44,13.96 	
		"/>
	<polygon fill="#1BABC1" points="29.14,10.75 26.87,10.75 26.87,10.47 29.14,10.47 29.14,9.04 25.23,9.04 25.23,12.25 27.5,12.25 
		27.5,12.53 25.23,12.53 25.23,14.03 29.14,14.03 	"/>
	<polygon fill="#1BABC1" points="33.85,10.75 31.57,10.75 31.57,10.47 33.85,10.47 33.85,9.04 29.93,9.04 29.93,12.25 32.21,12.25 
		32.21,12.53 29.93,12.53 29.93,14.03 33.85,14.03 	"/>
</g>
</svg>
