<?xml version="1.0" encoding="utf-8"?>
<!-- Generator: Adobe Illustrator 16.0.0, SVG Export Plug-In . SVG Version: 6.00 Build 0)  -->
<!DOCTYPE svg PUBLIC "-//W3C//DTD SVG 1.1//EN" "http://www.w3.org/Graphics/SVG/1.1/DTD/svg11.dtd">
<svg version="1.1" id="nodejs" xmlns="http://www.w3.org/2000/svg" xmlns:xlink="http://www.w3.org/1999/xlink" x="0px" y="0px"
	 width="55.44px" height="55.44px" viewBox="0 0 55.44 55.44" enable-background="new 0 0 55.44 55.44" xml:space="preserve">
<g>
	<path fill="#1BABC1" d="M10.84,24.39l-4.93-2.85c-0.08-0.05-0.17-0.06-0.27-0.07H5.59c-0.1,0.01-0.18,0.02-0.27,0.07l-4.93,2.85
		c-0.18,0.11-0.3,0.3-0.3,0.51l0.01,7.63c0,0.11,0.06,0.21,0.15,0.26c0.09,0.05,0.2,0.05,0.3,0l2.92-1.68
		c0.19-0.11,0.31-0.3,0.31-0.51v-3.56c0-0.22,0.11-0.41,0.29-0.52l1.25-0.72c0.09-0.05,0.19-0.08,0.29-0.08
		c0.1,0,0.21,0.02,0.3,0.08l1.24,0.72c0.19,0.11,0.3,0.3,0.3,0.52v3.56c0,0.21,0.12,0.41,0.31,0.51l2.92,1.68
		c0.09,0.05,0.21,0.05,0.3,0c0.09-0.05,0.15-0.15,0.15-0.26l0.01-7.63C11.14,24.69,11.02,24.5,10.84,24.39z"/>
	<path fill="#1BABC1" d="M40.37,16.05l-2.93-1.64c-0.05-0.02-0.1-0.03-0.15-0.03c-0.05,0-0.1,0.01-0.15,0.04
		c-0.09,0.05-0.15,0.15-0.15,0.26v7.56c0,0.07-0.04,0.14-0.1,0.18c-0.06,0.04-0.14,0.04-0.21,0l-1.23-0.71
		c-0.18-0.11-0.41-0.11-0.59,0l-4.93,2.84c-0.18,0.11-0.29,0.31-0.29,0.52v5.69c0,0.21,0.11,0.41,0.29,0.51l4.93,2.84
		c0.18,0.11,0.41,0.11,0.59,0l4.93-2.84c0.19-0.11,0.3-0.3,0.3-0.51V16.57C40.68,16.36,40.56,16.16,40.37,16.05z M36.98,28.88
		c0,0.05-0.03,0.1-0.08,0.13l-1.69,0.98c-0.05,0.03-0.1,0.03-0.15,0l-1.69-0.98c-0.05-0.03-0.08-0.08-0.08-0.13v-1.95
		c0-0.05,0.04-0.1,0.08-0.13l1.69-0.98c0.02-0.01,0.04-0.02,0.07-0.02s0.06,0.01,0.08,0.02l1.69,0.98c0.05,0.03,0.08,0.08,0.08,0.13
		V28.88z"/>
	<path fill="#1BABC1" d="M55.07,24.47l-4.9-2.85c-0.09-0.05-0.19-0.08-0.3-0.08c-0.1,0-0.2,0.03-0.29,0.08l-4.93,2.85
		c-0.19,0.1-0.3,0.3-0.3,0.51v5.69c0,0.21,0.12,0.41,0.31,0.51l4.89,2.79c0.18,0.1,0.4,0.11,0.58,0.01l2.96-1.65
		c0.09-0.05,0.16-0.15,0.16-0.26c0-0.11-0.05-0.2-0.15-0.26l-4.96-2.85c-0.09-0.05-0.16-0.16-0.16-0.27v-1.78
		c0-0.11,0.06-0.2,0.16-0.26l1.54-0.89c0.09-0.05,0.2-0.05,0.29,0l1.54,0.89c0.09,0.05,0.15,0.15,0.15,0.26v1.4
		c0,0.11,0.05,0.2,0.15,0.26c0.09,0.05,0.21,0.05,0.3,0l2.95-1.72c0.18-0.11,0.3-0.3,0.3-0.51v-1.37
		C55.36,24.77,55.25,24.58,55.07,24.47z"/>
	<path fill="#1BABC1" d="M25.62,24.43l-4.93-2.83c-0.09-0.05-0.19-0.08-0.3-0.08s-0.2,0.03-0.29,0.08l-4.93,2.83
		c-0.18,0.11-0.3,0.31-0.3,0.52v5.69c0,0.21,0.11,0.41,0.3,0.51L20.1,34c0.18,0.11,0.41,0.11,0.59,0l4.93-2.84
		c0.18-0.11,0.3-0.3,0.3-0.51v-5.69C25.91,24.74,25.8,24.54,25.62,24.43z"/>
	<path fill="#1BABC1" d="M49.91,26.61c-0.02-0.01-0.03-0.01-0.05-0.01s-0.04,0-0.06,0.01l-0.95,0.55c-0.04,0.02-0.06,0.06-0.06,0.1
		v1.08c0,0.04,0.02,0.08,0.06,0.1l0.95,0.54c0.04,0.02,0.07,0.02,0.11,0l0.95-0.54c0.04-0.02,0.06-0.06,0.06-0.1v-1.08
		c0-0.04-0.02-0.08-0.06-0.1L49.91,26.61z"/>
</g>
</svg>
