<?xml version="1.0" encoding="utf-8"?>
<!-- Generator: Adobe Illustrator 16.0.0, SVG Export Plug-In . SVG Version: 6.00 Build 0)  -->
<!DOCTYPE svg PUBLIC "-//W3C//DTD SVG 1.1//EN" "http://www.w3.org/Graphics/SVG/1.1/DTD/svg11.dtd">
<svg version="1.1" id="JavaScript" xmlns="http://www.w3.org/2000/svg" xmlns:xlink="http://www.w3.org/1999/xlink" x="0px" y="0px"
	 width="55.44px" height="55.44px" viewBox="0 0 55.44 55.44" enable-background="new 0 0 55.44 55.44" xml:space="preserve">
<path fill="#1BABC1" d="M10.83,10.35v33.73h33.73V10.35H10.83z M29.18,36.65c0,3.28-1.92,4.78-4.73,4.78c-2.54,0-4.01-1.32-4.75-2.9
	l0,0l2.58-1.56c0.5,0.88,0.95,1.63,2.04,1.63c1.04,0,1.7-0.41,1.7-1.99V25.83h3.17V36.65z M36.68,41.43c-2.94,0-4.84-1.4-5.77-3.24
	l0,0l2.58-1.49c0.68,1.11,1.56,1.92,3.12,1.92c1.31,0,2.15-0.66,2.15-1.56c0-1.08-0.86-1.47-2.31-2.1l-0.79-0.34
	c-2.29-0.97-3.8-2.2-3.8-4.78c0-2.38,1.81-4.19,4.64-4.19c2.02,0,3.46,0.7,4.51,2.54l-2.47,1.58c-0.54-0.97-1.13-1.36-2.04-1.36
	c-0.93,0-1.52,0.59-1.52,1.36c0,0.95,0.59,1.34,1.95,1.93l0.79,0.34c2.69,1.15,4.21,2.33,4.21,4.98
	C41.93,39.87,39.69,41.43,36.68,41.43z"/>
</svg>
