<?xml version="1.0" encoding="utf-8"?>
<!-- Generator: Adobe Illustrator 16.0.0, SVG Export Plug-In . SVG Version: 6.00 Build 0)  -->
<!DOCTYPE svg PUBLIC "-//W3C//DTD SVG 1.1//EN" "http://www.w3.org/Graphics/SVG/1.1/DTD/svg11.dtd">
<svg version="1.1" id="sass" xmlns="http://www.w3.org/2000/svg" xmlns:xlink="http://www.w3.org/1999/xlink" x="0px" y="0px"
	 width="55.44px" height="55.44px" viewBox="0 0 55.44 55.44" enable-background="new 0 0 55.44 55.44" xml:space="preserve">
<path fill="#1BABC1" d="M47.15,29.61c-1.52,0.01-2.85,0.38-3.96,0.92c-0.41-0.8-0.81-1.52-0.89-2.05c-0.08-0.61-0.17-0.99-0.08-1.72
	c0.1-0.73,0.53-1.78,0.52-1.86c-0.01-0.08-0.09-0.46-0.97-0.46c-0.88-0.01-1.64,0.17-1.72,0.4c-0.09,0.23-0.26,0.76-0.37,1.3
	c-0.15,0.8-1.75,3.64-2.67,5.14c-0.29-0.58-0.55-1.09-0.61-1.5c-0.08-0.61-0.17-0.99-0.08-1.72c0.09-0.73,0.53-1.78,0.52-1.86
	c-0.01-0.08-0.1-0.45-0.97-0.46c-0.88-0.01-1.64,0.17-1.72,0.4s-0.18,0.77-0.37,1.3c-0.18,0.53-2.31,5.28-2.87,6.51
	c-0.29,0.63-0.54,1.13-0.71,1.48l0,0c0,0-0.01,0.02-0.03,0.06c-0.15,0.29-0.24,0.45-0.24,0.45s0,0,0,0.01
	c-0.12,0.22-0.25,0.42-0.31,0.42c-0.05,0-0.14-0.57,0.02-1.36c0.32-1.65,1.08-4.22,1.07-4.31c0-0.05,0.15-0.49-0.49-0.73
	c-0.62-0.23-0.85,0.15-0.9,0.15c-0.06,0-0.1,0.14-0.1,0.14s0.7-2.89-1.32-2.89c-1.26,0-3,1.38-3.86,2.62
	c-0.54,0.29-1.7,0.92-2.94,1.6c-0.47,0.26-0.96,0.53-1.41,0.78c-0.03-0.03-0.06-0.07-0.09-0.1c-2.44-2.61-6.96-4.45-6.76-7.95
	c0.07-1.28,0.51-4.62,8.67-8.69c6.72-3.31,12.06-2.39,12.99-0.36c1.33,2.9-2.86,8.3-9.8,9.08c-2.65,0.29-4.04-0.72-4.39-1.11
	c-0.37-0.4-0.42-0.42-0.56-0.34c-0.22,0.12-0.08,0.48,0,0.69c0.21,0.54,1.06,1.5,2.51,1.97c1.28,0.42,4.38,0.65,8.14-0.8
	c4.21-1.63,7.49-6.15,6.53-9.94c-0.96-3.85-7.35-5.11-13.39-2.97c-3.59,1.28-7.48,3.29-10.28,5.91c-3.33,3.11-3.85,5.81-3.64,6.95
	c0.77,4.02,6.32,6.64,8.54,8.58c-0.11,0.06-0.22,0.12-0.3,0.17c-1.11,0.55-5.34,2.76-6.39,5.1c-1.2,2.65,0.19,4.55,1.11,4.8
	c2.85,0.79,5.78-0.63,7.35-2.98c1.57-2.35,1.38-5.39,0.65-6.79c-0.01-0.02-0.02-0.03-0.03-0.05c0.29-0.17,0.58-0.34,0.87-0.51
	c0.57-0.33,1.12-0.65,1.6-0.9c-0.27,0.74-0.47,1.63-0.57,2.9c-0.12,1.5,0.5,3.45,1.3,4.21c0.36,0.33,0.78,0.34,1.05,0.34
	c0.94,0,1.36-0.78,1.83-1.71c0.57-1.13,1.09-2.45,1.09-2.45s-0.65,3.56,1.11,3.56c0.64,0,1.28-0.83,1.57-1.25c0,0.01,0,0.01,0,0.01
	s0.02-0.02,0.05-0.08c0.06-0.1,0.1-0.17,0.1-0.17s0-0.01,0-0.02c0.26-0.45,0.83-1.46,1.68-3.14c1.1-2.17,2.16-4.88,2.16-4.88
	s0.1,0.66,0.42,1.76c0.19,0.65,0.59,1.36,0.91,2.04c-0.26,0.36-0.42,0.56-0.42,0.56s0,0,0.01,0.01c-0.21,0.27-0.43,0.57-0.68,0.85
	c-0.87,1.04-1.91,2.22-2.05,2.57c-0.17,0.41-0.13,0.7,0.19,0.94c0.23,0.18,0.65,0.2,1.07,0.18c0.78-0.06,1.33-0.25,1.6-0.37
	c0.42-0.15,0.92-0.38,1.38-0.72c0.85-0.63,1.37-1.53,1.32-2.72c-0.02-0.66-0.24-1.31-0.5-1.92c0.08-0.11,0.15-0.22,0.23-0.33
	c1.35-1.97,2.39-4.13,2.39-4.13s0.1,0.66,0.42,1.76c0.16,0.56,0.49,1.16,0.77,1.76c-1.27,1.03-2.05,2.22-2.33,3.01
	c-0.5,1.45-0.11,2.11,0.63,2.26c0.34,0.07,0.81-0.09,1.17-0.24c0.45-0.14,0.97-0.39,1.48-0.76c0.85-0.63,1.67-1.51,1.63-2.7
	c-0.02-0.54-0.17-1.08-0.37-1.6c1.08-0.45,2.46-0.7,4.24-0.49c3.8,0.45,4.55,2.81,4.4,3.81c-0.14,1-0.94,1.54-1.2,1.71
	c-0.26,0.17-0.35,0.22-0.33,0.34c0.03,0.17,0.16,0.17,0.38,0.13c0.31-0.05,2-0.81,2.07-2.64C53.33,32.15,51.1,29.59,47.15,29.61z
	 M17.86,39.49c-1.26,1.37-3.02,1.89-3.77,1.45c-0.81-0.47-0.49-2.5,1.05-3.95c0.94-0.89,2.15-1.71,2.96-2.21
	c0.18-0.11,0.45-0.27,0.78-0.47c0.05-0.03,0.09-0.05,0.09-0.05l0,0c0.06-0.04,0.13-0.08,0.19-0.12
	C19.72,36.22,19.18,38.04,17.86,39.49z M27.03,33.25c-0.44,1.07-1.36,3.8-1.92,3.65c-0.48-0.13-0.77-2.2-0.09-4.25
	c0.34-1.03,1.07-2.26,1.49-2.74c0.68-0.77,1.44-1.02,1.63-0.71C28.37,29.61,27.3,32.58,27.03,33.25z M34.6,36.87
	c-0.18,0.1-0.36,0.16-0.44,0.11c-0.06-0.03,0.08-0.16,0.08-0.16s0.95-1.02,1.32-1.48c0.22-0.27,0.47-0.59,0.74-0.95
	c0,0.03,0,0.07,0,0.1C36.31,35.71,35.13,36.54,34.6,36.87z M40.44,35.54c-0.13-0.09-0.11-0.42,0.34-1.41
	c0.18-0.39,0.59-1.05,1.3-1.68c0.08,0.26,0.13,0.5,0.13,0.73C42.2,34.73,41.1,35.3,40.44,35.54z"/>
</svg>
