<?xml version="1.0" encoding="utf-8"?>
<!-- Generator: Adobe Illustrator 16.0.0, SVG Export Plug-In . SVG Version: 6.00 Build 0)  -->
<!DOCTYPE svg PUBLIC "-//W3C//DTD SVG 1.1//EN" "http://www.w3.org/Graphics/SVG/1.1/DTD/svg11.dtd">
<svg version="1.1" id="mocha" xmlns="http://www.w3.org/2000/svg" xmlns:xlink="http://www.w3.org/1999/xlink" x="0px" y="0px"
	 width="55.44px" height="55.44px" viewBox="0 0 55.44 55.44" enable-background="new 0 0 55.44 55.44" xml:space="preserve">
<g>
	<path fill="#1BABC1" d="M39.18,16.31H16.24c-0.61,0-1.22,0.49-1.22,1.22c0,4.15,0.61,18.42,6.71,25.38
		c0.24,0.24,0.49,0.37,0.85,0.37h10.25c0.37,0,0.61-0.12,0.85-0.37c6.1-6.83,6.71-21.11,6.71-25.38
		C40.4,16.92,39.91,16.31,39.18,16.31z M32.34,39.37c-0.36,0.24-0.61,0.37-0.97,0.37h-7.2c-0.37,0-0.61-0.12-0.85-0.37
		c-4.15-4.88-4.64-14.64-4.76-18.05c0-0.61,0.49-1.22,1.22-1.22h16.1c0.61,0,1.22,0.49,1.22,1.22
		C37.1,24.73,36.49,34.37,32.34,39.37z"/>
	<path fill="#1BABC1" d="M30.03,13.87L30.03,13.87c0,0,4.39-2.56,1.71-7.2c-1.59-2.44-2.32-4.52-1.71-5.37
		c-1.59,1.95-4.27,4.03-1.34,8.42C29.66,10.82,30.15,13.14,30.03,13.87z"/>
	<path fill="#1BABC1" d="M25.09,5.88c0.02-0.02,0.04-0.04,0.06-0.07C25.13,5.84,25.11,5.86,25.09,5.88z"/>
	<path fill="#1BABC1" d="M24.29,11.55c0.61,0.61,0.85,2.2,0.85,2.68c0,0,2.93-1.71,1.1-4.88c-1.05-1.52-1.54-2.92-1.16-3.47
		C23.99,7.21,22.37,8.55,24.29,11.55z"/>
	<path fill="#1BABC1" d="M32.1,30.58C28.08,32.05,21,31.07,21,31.07c0.61,2.56,1.59,5,3.05,6.83c0.12,0.24,0.49,0.37,0.73,0.37h6.1
		c0.24,0,0.49-0.12,0.73-0.37c2.07-2.44,3.05-6.22,3.54-9.51C35.14,28.47,34.92,29.53,32.1,30.58z"/>
	<path fill="#1BABC1" d="M35.15,28.39L35.15,28.39L35.15,28.39z"/>
</g>
</svg>
