<?xml version="1.0" encoding="utf-8"?>
<!-- Generator: Adobe Illustrator 16.0.0, SVG Export Plug-In . SVG Version: 6.00 Build 0)  -->
<!DOCTYPE svg PUBLIC "-//W3C//DTD SVG 1.1//EN" "http://www.w3.org/Graphics/SVG/1.1/DTD/svg11.dtd">
<svg version="1.1" id="html" xmlns="http://www.w3.org/2000/svg" xmlns:xlink="http://www.w3.org/1999/xlink" x="0px" y="0px"
	 width="55.44px" height="55.44px" viewBox="0 0 55.44 55.44" enable-background="new 0 0 55.44 55.44" xml:space="preserve">
<g>
	<path fill="#1BABC1" d="M15.23,16.21l2.35,26.38l10.55,2.93l10.58-2.93l2.35-26.37H15.23z M36.16,22.47l-0.15,1.64l-0.07,0.73
		h-0.01h-7.79h-0.01h-4.57l0.3,3.31h4.27h0.01h6.64h0.87l-0.08,0.87l-0.76,8.52l-0.05,0.55l-6.62,1.83v0l-0.01,0l-6.63-1.84
		L21.06,33h1.49h1.75l0.23,2.58l3.6,0.97l0,0l0,0l3.61-0.97l0.38-4.19h-3.97h-0.01h-7.23l-0.79-8.92l-0.08-0.87h8.1h0.01h8.09
		L36.16,22.47z"/>
	<polygon fill="#1BABC1" points="19.28,12.31 20.78,12.31 20.78,13.96 22.43,13.96 22.43,9.04 20.78,9.04 20.78,10.67 19.28,10.67 
		19.28,9.04 17.63,9.04 17.63,13.96 19.28,13.96 	"/>
	<polygon fill="#1BABC1" points="24.59,10.67 24.59,13.96 26.23,13.96 26.23,10.67 27.68,10.67 27.68,9.04 23.14,9.04 23.14,10.67 
		24.59,10.67 	"/>
	<polygon fill="#1BABC1" points="30.01,11.52 31.14,13.27 31.17,13.27 32.3,11.52 32.3,13.96 33.94,13.96 33.94,9.04 32.22,9.04 
		31.17,10.77 30.11,9.04 28.4,9.04 28.4,13.96 30.01,13.96 	"/>
	<polygon fill="#1BABC1" points="38.71,12.33 36.4,12.33 36.4,9.04 34.75,9.04 34.75,13.96 38.71,13.96 	"/>
</g>
</svg>
