<?xml version="1.0" encoding="utf-8"?>
<!-- Generator: Adobe Illustrator 16.0.0, SVG Export Plug-In . SVG Version: 6.00 Build 0)  -->
<!DOCTYPE svg PUBLIC "-//W3C//DTD SVG 1.1//EN" "http://www.w3.org/Graphics/SVG/1.1/DTD/svg11.dtd">
<svg version="1.1" id="mongodb" xmlns="http://www.w3.org/2000/svg" xmlns:xlink="http://www.w3.org/1999/xlink" x="0px" y="0px"
	 width="55.44px" height="55.44px" viewBox="0 0 55.44 55.44" enable-background="new 0 0 55.44 55.44" xml:space="preserve">
<g>
	<g>
		<path fill="#1BABC1" d="M36.38,25.86c-2.18-9.63-7.33-12.77-7.88-14c-0.6-0.86-1.22-2.37-1.22-2.37v0.03
			c-0.02-0.05-0.02-0.1-0.05-0.13c-0.06,0.86-0.11,1.17-0.91,2.03c-1.25,0.96-7.67,6.35-8.2,17.28c-0.49,10.2,7.39,16.29,8.43,17.04
			l0.28,0.16c0.08,0.05-0.1-20.55,0.47-20.55c0.31,0,0.7,16.81,0.88,20.42c-0.03,0.08,1.22-0.44,2.21-1.48
			C33.05,41.88,38.07,35.8,36.38,25.86z M30.42,44.28L30.42,44.28L30.42,44.28C30.42,44.28,30.42,44.3,30.42,44.28
			C30.42,44.3,30.4,44.3,30.42,44.28z"/>
	</g>
	<g>
		<path fill="#1BABC1" d="M28.21,45.76c-0.52,0.29-0.89,0.29-1.35,0.13l0.39,4.66l0.96,0.31C28.18,50.86,28.26,47.97,28.21,45.76z"
			/>
	</g>
</g>
</svg>
