<?xml version="1.0" encoding="utf-8"?>
<!-- Generator: Adobe Illustrator 16.0.0, SVG Export Plug-In . SVG Version: 6.00 Build 0)  -->
<!DOCTYPE svg PUBLIC "-//W3C//DTD SVG 1.1//EN" "http://www.w3.org/Graphics/SVG/1.1/DTD/svg11.dtd">
<svg version="1.1" id="photoshop" xmlns="http://www.w3.org/2000/svg" xmlns:xlink="http://www.w3.org/1999/xlink" x="0px" y="0px"
	 width="55.44px" height="55.44px" viewBox="0 0 55.44 55.44" enable-background="new 0 0 55.44 55.44" xml:space="preserve">
<g>
	<path fill="#1BABC1" d="M30.1,34.01c0.62,0.36,1.7,0.62,2.96,0.62c2.38,0,4.14-1.24,4.14-3.54c0-1.54-0.71-2.6-2.97-3.69
		c-1.53-0.79-1.79-1.15-1.79-1.67c0-0.48,0.39-1.05,1.53-1.05c0.94,0,1.87,0.25,2.51,0.65c0.14,0.04,0.22-0.03,0.22-0.14v-1.97
		c0-0.1-0.03-0.21-0.14-0.29c-0.48-0.22-1.34-0.4-2.58-0.4c-2.52,0-3.98,1.54-3.98,3.4c0,1.66,0.85,2.65,2.9,3.63
		c1.46,0.75,1.79,1.21,1.79,1.73c0,0.65-0.48,1.12-1.62,1.12c-0.95,0-1.99-0.26-2.9-0.85c-0.1-0.07-0.18-0.03-0.18,0.12v2.12
		C29.99,33.89,30,33.96,30.1,34.01z"/>
	<path fill="#1BABC1" d="M19.18,34.38h2.21c0.13,0,0.17-0.06,0.17-0.17v-5.54c0.39,0,0.58,0.03,1.12,0.03
		c3.26,0,5.91-1.57,5.91-5.23c0-2.8-1.56-4.99-5.55-4.99c-1.43,0-2.8,0.03-3.72,0.07c-0.12,0-0.32,0.07-0.32,0.17v15.48
		C19,34.34,19.06,34.38,19.18,34.38z M21.57,20.81c0.26-0.01,0.81-0.04,1.38-0.04c1.92,0,3.06,0.92,3.06,2.75
		c0,2.29-1.59,2.88-3.27,2.88c-0.58,0-0.84,0-1.17-0.03V20.81z"/>
	<path fill="#1BABC1" d="M10.64,10.82v33.73h34.6V10.82H10.64z M43.8,43.12H12.08V12.27H43.8V43.12z"/>
</g>
</svg>
