<?xml version="1.0" encoding="utf-8"?>
<!-- Generator: Adobe Illustrator 16.0.0, SVG Export Plug-In . SVG Version: 6.00 Build 0)  -->
<!DOCTYPE svg PUBLIC "-//W3C//DTD SVG 1.1//EN" "http://www.w3.org/Graphics/SVG/1.1/DTD/svg11.dtd">
<svg version="1.1" id="jest" xmlns="http://www.w3.org/2000/svg" xmlns:xlink="http://www.w3.org/1999/xlink" x="0px" y="0px"
	 width="55.44px" height="55.44px" viewBox="0 0 55.44 55.44" enable-background="new 0 0 55.44 55.44" xml:space="preserve">
<g>
	<path fill="#1BABC1" d="M28.23,23.34l4.52-9.14l4.51,9.2c0.19-0.07,0.38,0.99,0.58,0.95L42.4,12H23.08l4.55,12.3
		C27.83,24.34,28.03,23.27,28.23,23.34z"/>
	<path fill="#1BABC1" d="M36.09,27.75c0,1.56,1.27,2.83,2.83,2.83c1.56,0,2.83-1.27,2.83-2.83c0-1.56-1.27-2.83-2.83-2.83
		C37.36,24.92,36.09,26.19,36.09,27.75z"/>
	<path fill="#1BABC1" d="M23.88,27.75c0,1.56,1.27,2.83,2.83,2.83s2.83-1.27,2.83-2.83c0-1.56-1.27-2.83-2.83-2.83
		S23.88,26.19,23.88,27.75z"/>
	<path fill="#1BABC1" d="M14.46,30.61c1.56,0,2.83-1.27,2.83-2.83c0-1.56-1.27-2.83-2.83-2.83s-2.83,1.27-2.83,2.83
		C11.62,29.34,12.89,30.61,14.46,30.61z"/>
	<path fill="#1BABC1" d="M38.92,32.41c-2.55,0-4.62-2.05-4.66-4.59l-2.89-0.04c-0.01,2.56-2.1,4.64-4.66,4.64
		c-0.24,0-0.47-0.02-0.7-0.05c-0.76,1.2-1.68,2.32-2.76,3.33c-1.66,1.57-3.54,2.73-5.57,3.46l-0.38,0.13l-0.35-0.18
		c-2.57-1.32-3.8-4.12-3.02-6.69c-0.42-0.05-0.82-0.15-1.2-0.3c-0.13,0.27-0.26,0.53-0.39,0.8c-0.77,1.57-1.56,3.2-1.85,4.97
		c-0.32,1.91-0.44,5.39,2.27,7.27c3.7,2.57,7.63,0.62,12.18-1.64c2.27-1.13,4.62-2.3,7.05-2.9c0.92-0.23,1.86-0.36,2.77-0.49
		c1.7-0.24,3.3-0.48,4.64-1.25c1.43-0.83,2.41-2.22,2.69-3.8c0.21-1.2,0.01-2.41-0.51-3.48C40.82,32.1,39.91,32.41,38.92,32.41z"/>
</g>
</svg>
