<?xml version="1.0" encoding="utf-8"?>
<!-- Generator: Adobe Illustrator 16.0.0, SVG Export Plug-In . SVG Version: 6.00 Build 0)  -->
<!DOCTYPE svg PUBLIC "-//W3C//DTD SVG 1.1//EN" "http://www.w3.org/Graphics/SVG/1.1/DTD/svg11.dtd">
<svg version="1.1" id="xd" xmlns="http://www.w3.org/2000/svg" xmlns:xlink="http://www.w3.org/1999/xlink" x="0px" y="0px"
	 width="55.44px" height="55.44px" viewBox="0 0 55.44 55.44" enable-background="new 0 0 55.44 55.44" xml:space="preserve">
<g>
	<path fill="#1BABC1" d="M10.79,10.83v33.75H45.4V10.83H10.79z M43.96,43.14H12.23V12.27h31.73V43.14z"/>
	<path fill="#1BABC1" d="M17.44,34.41h2.39c0.12,0,0.19-0.04,0.26-0.16c0.92-1.9,1.88-4.01,2.74-5.94h0.03
		c0.97,2.05,1.91,4.02,2.83,5.93c0.07,0.14,0.14,0.19,0.3,0.19h2.51c0.12,0,0.16-0.12,0.09-0.23l-4.04-7.83l3.81-7.31
		c0.07-0.13,0.03-0.22-0.09-0.22h-2.32c-0.14,0-0.19,0.07-0.26,0.19c-0.88,1.89-1.8,3.81-2.64,5.71h-0.03
		c-0.87-1.93-1.79-3.82-2.7-5.74c-0.04-0.13-0.12-0.16-0.26-0.16h-2.48c-0.1,0-0.19,0.1-0.1,0.22l3.82,7.55l-3.95,7.6
		C17.28,34.3,17.29,34.41,17.44,34.41z"/>
	<path fill="#1BABC1" d="M34.83,34.56c1.21,0,2.48-0.26,3.69-0.84c0.09-0.04,0.09-0.06,0.09-0.16c-0.07-0.53-0.07-1.03-0.07-1.41
		V18.97c0-0.07-0.03-0.12-0.14-0.12h-2.32c-0.07,0-0.14,0.06-0.14,0.14v3.75c-0.29-0.03-0.45-0.03-0.75-0.03
		c-3.55,0-5.71,2.63-5.71,5.99C29.46,32.62,31.7,34.56,34.83,34.56z M35.09,24.86c0.35,0,0.62,0.04,0.83,0.14h-0.01v7.14
		c-0.27,0.12-0.65,0.16-1,0.16c-1.61,0-2.85-1.07-2.85-3.72C32.06,26.26,33.27,24.86,35.09,24.86z"/>
</g>
</svg>
