<?xml version="1.0" encoding="utf-8"?>
<!-- Generator: Adobe Illustrator 16.0.0, SVG Export Plug-In . SVG Version: 6.00 Build 0)  -->
<!DOCTYPE svg PUBLIC "-//W3C//DTD SVG 1.1//EN" "http://www.w3.org/Graphics/SVG/1.1/DTD/svg11.dtd">
<svg version="1.1" id="jquery" xmlns="http://www.w3.org/2000/svg" xmlns:xlink="http://www.w3.org/1999/xlink" x="0px" y="0px"
	 width="55.44px" height="55.44px" viewBox="0 0 55.44 55.44" enable-background="new 0 0 55.44 55.44" xml:space="preserve">
<g>
	<path fill="#1BABC1" d="M27.3,38.32c-0.23-0.05-0.44-0.12-0.66-0.18c-0.05-0.02-0.11-0.03-0.16-0.05
		c-0.21-0.07-0.43-0.13-0.64-0.21c-0.03-0.01-0.06-0.02-0.09-0.03c-0.19-0.07-0.37-0.14-0.56-0.21c-0.05-0.02-0.11-0.04-0.16-0.06
		c-0.2-0.08-0.41-0.17-0.61-0.25c-0.04-0.02-0.08-0.04-0.12-0.05c-0.17-0.08-0.35-0.16-0.51-0.24c-0.05-0.02-0.1-0.05-0.15-0.07
		c-0.13-0.06-0.27-0.13-0.4-0.2c-0.09-0.05-0.18-0.09-0.26-0.14c-0.16-0.08-0.32-0.18-0.48-0.27c-0.05-0.03-0.11-0.06-0.16-0.09
		c-0.21-0.12-0.42-0.25-0.62-0.38c-0.06-0.03-0.11-0.07-0.17-0.11c-0.15-0.09-0.29-0.19-0.44-0.29c-0.05-0.03-0.09-0.07-0.14-0.1
		c-0.14-0.1-0.28-0.2-0.42-0.3c-0.06-0.05-0.12-0.09-0.18-0.14c-0.13-0.1-0.25-0.19-0.38-0.29c-0.06-0.04-0.11-0.09-0.17-0.14
		c-0.16-0.13-0.31-0.26-0.47-0.39c-0.02-0.02-0.04-0.03-0.05-0.04c-0.17-0.14-0.33-0.3-0.49-0.45c-0.05-0.04-0.09-0.09-0.14-0.13
		c-0.12-0.11-0.24-0.23-0.35-0.35c-0.05-0.05-0.09-0.09-0.14-0.14c-0.15-0.15-0.29-0.3-0.43-0.46c-0.01-0.01-0.01-0.01-0.02-0.02
		c-0.15-0.17-0.3-0.33-0.44-0.5c-0.04-0.04-0.08-0.09-0.12-0.13c-0.1-0.13-0.21-0.26-0.31-0.39c-0.04-0.05-0.08-0.1-0.12-0.14
		c-0.12-0.16-0.25-0.32-0.37-0.49c-3.29-4.49-4.47-10.69-1.84-15.77l-2.33,2.96c-2.99,4.29-2.62,9.88-0.33,14.45
		c0.06,0.11,0.11,0.22,0.17,0.33c0.04,0.07,0.07,0.14,0.11,0.2c0.02,0.04,0.04,0.08,0.07,0.12c0.04,0.07,0.08,0.14,0.12,0.21
		c0.07,0.12,0.14,0.25,0.22,0.37c0.04,0.07,0.08,0.14,0.12,0.21c0.08,0.13,0.17,0.26,0.25,0.39c0.03,0.06,0.07,0.11,0.11,0.17
		c0.12,0.18,0.24,0.35,0.37,0.53c0,0,0.01,0.01,0.01,0.01c0.02,0.03,0.04,0.05,0.06,0.08c0.11,0.15,0.22,0.3,0.33,0.44
		c0.04,0.05,0.08,0.11,0.13,0.16c0.1,0.13,0.2,0.25,0.31,0.38c0.04,0.04,0.08,0.09,0.12,0.14c0.14,0.17,0.28,0.33,0.43,0.49
		c0,0,0.01,0,0.01,0.01c0,0.01,0.01,0.01,0.02,0.02c0.14,0.16,0.29,0.31,0.43,0.46c0.04,0.05,0.09,0.09,0.14,0.14
		c0.12,0.12,0.23,0.23,0.35,0.34c0.05,0.05,0.1,0.09,0.14,0.14c0.16,0.15,0.32,0.29,0.48,0.44c0,0,0.01,0,0.01,0.01
		c0.03,0.02,0.06,0.05,0.08,0.07c0.14,0.12,0.29,0.25,0.43,0.37c0.06,0.05,0.12,0.09,0.18,0.14c0.12,0.09,0.24,0.19,0.36,0.28
		c0.07,0.05,0.13,0.1,0.19,0.15c0.13,0.1,0.27,0.2,0.41,0.29c0.05,0.04,0.1,0.07,0.15,0.11c0.01,0.01,0.03,0.02,0.04,0.03
		c0.13,0.09,0.26,0.17,0.39,0.26c0.06,0.04,0.11,0.08,0.17,0.11c0.2,0.13,0.41,0.26,0.62,0.38c0.05,0.03,0.11,0.07,0.17,0.1
		c0.15,0.09,0.31,0.17,0.46,0.26c0.08,0.05,0.17,0.09,0.26,0.13c0.11,0.06,0.22,0.12,0.33,0.17c0.02,0.01,0.05,0.02,0.08,0.04
		c0.05,0.02,0.09,0.04,0.14,0.07c0.17,0.08,0.35,0.17,0.53,0.24c0.04,0.02,0.07,0.03,0.11,0.05c0.2,0.09,0.41,0.17,0.61,0.25
		c0.05,0.02,0.1,0.04,0.15,0.06c0.19,0.07,0.38,0.15,0.58,0.22c0.02,0.01,0.05,0.02,0.07,0.02c0.21,0.07,0.43,0.14,0.64,0.21
		c0.05,0.02,0.1,0.03,0.16,0.04c0.22,0.07,0.44,0.15,0.67,0.19c14.45,2.63,18.65-8.69,18.65-8.69
		C39.49,38.46,33.23,39.67,27.3,38.32z"/>
	<path fill="#1BABC1" d="M22.09,26.61c0.33,0.46,0.68,1.02,1.11,1.39c0.16,0.17,0.32,0.34,0.49,0.5c0.04,0.04,0.09,0.08,0.13,0.13
		c0.16,0.16,0.33,0.31,0.49,0.46c0.01,0.01,0.01,0.01,0.02,0.02c0,0,0,0,0,0.01c0.19,0.16,0.38,0.32,0.58,0.48
		c0.04,0.03,0.09,0.07,0.13,0.1c0.2,0.15,0.4,0.3,0.61,0.44c0.01,0,0.01,0.01,0.02,0.01c0.09,0.06,0.18,0.12,0.28,0.18
		c0.05,0.03,0.09,0.06,0.13,0.09c0.15,0.09,0.3,0.19,0.45,0.27c0.02,0.01,0.04,0.02,0.06,0.04c0.13,0.07,0.26,0.15,0.39,0.22
		c0.05,0.03,0.09,0.05,0.14,0.07c0.09,0.05,0.18,0.1,0.28,0.14c0.01,0.01,0.03,0.02,0.04,0.02c0.19,0.09,0.38,0.18,0.58,0.27
		c0.04,0.02,0.08,0.04,0.13,0.05c0.16,0.07,0.32,0.13,0.48,0.19c0.07,0.03,0.13,0.05,0.2,0.07c0.14,0.05,0.29,0.1,0.44,0.15
		c0.07,0.02,0.13,0.04,0.2,0.06c0.21,0.06,0.41,0.14,0.63,0.18c11.16,1.85,13.74-6.75,13.74-6.75c-2.32,3.35-6.82,4.94-11.62,3.7
		c-0.21-0.06-0.42-0.12-0.63-0.19c-0.06-0.02-0.13-0.04-0.19-0.06c-0.15-0.05-0.3-0.1-0.44-0.15c-0.07-0.02-0.13-0.05-0.2-0.08
		c-0.16-0.06-0.32-0.12-0.47-0.19c-0.04-0.02-0.09-0.04-0.13-0.05c-0.2-0.09-0.39-0.18-0.58-0.27c-0.1-0.05-0.2-0.1-0.29-0.15
		c-0.06-0.03-0.11-0.06-0.17-0.09c-0.13-0.07-0.25-0.14-0.37-0.21c-0.03-0.01-0.06-0.03-0.09-0.05c-0.15-0.09-0.3-0.18-0.45-0.27
		c-0.04-0.03-0.09-0.06-0.13-0.09c-0.1-0.06-0.2-0.13-0.29-0.19c-0.21-0.14-0.41-0.29-0.6-0.44c-0.04-0.04-0.09-0.07-0.14-0.11
		c-2.1-1.66-3.77-3.93-4.56-6.5c-0.83-2.67-0.65-5.66,0.79-8.09l-1.77,2.49c-2.16,3.11-2.04,7.28-0.36,10.56
		C21.42,25.57,21.74,26.1,22.09,26.61z"/>
	<path fill="#1BABC1" d="M33.85,22.76c0.09,0.03,0.18,0.07,0.28,0.1c0.04,0.01,0.08,0.03,0.12,0.04c0.13,0.04,0.26,0.09,0.4,0.12
		c6.16,1.19,7.83-3.16,8.28-3.8c-1.47,2.11-3.93,2.61-6.95,1.88c-0.24-0.06-0.5-0.14-0.73-0.23c-0.29-0.11-0.58-0.23-0.87-0.36
		c-0.54-0.26-1.05-0.57-1.52-0.93c-2.7-2.05-4.38-5.96-2.62-9.15l-0.95,1.32c-1.27,1.87-1.4,4.21-0.52,6.28
		C29.71,20.22,31.63,21.94,33.85,22.76z"/>
</g>
</svg>
