<?xml version="1.0" encoding="utf-8"?>
<!-- Generator: Adobe Illustrator 16.0.0, SVG Export Plug-In . SVG Version: 6.00 Build 0)  -->
<!DOCTYPE svg PUBLIC "-//W3C//DTD SVG 1.1//EN" "http://www.w3.org/Graphics/SVG/1.1/DTD/svg11.dtd">
<svg version="1.1" id="git" xmlns="http://www.w3.org/2000/svg" xmlns:xlink="http://www.w3.org/1999/xlink" x="0px" y="0px"
	 width="55.44px" height="55.44px" viewBox="0 0 55.44 55.44" enable-background="new 0 0 55.44 55.44" xml:space="preserve">
<path fill="#1BABC1" d="M46.47,25.89L29.51,8.94c-0.97-0.98-2.56-0.98-3.53,0l-3.52,3.52l4.47,4.47c1.04-0.35,2.23-0.12,3.05,0.71
	c0.83,0.83,1.07,2.03,0.71,3.07l4.3,4.3c1.04-0.36,2.24-0.13,3.07,0.7c1.16,1.16,1.16,3.05,0,4.21c-1.16,1.16-3.04,1.16-4.21,0
	c-0.87-0.87-1.09-2.16-0.65-3.23l-4.01-4.01l0,10.56c0.28,0.14,0.55,0.33,0.79,0.56c1.16,1.16,1.16,3.04,0,4.21
	c-1.16,1.16-3.05,1.16-4.21,0c-1.16-1.16-1.16-3.04,0-4.21c0.29-0.29,0.62-0.5,0.97-0.65V22.49c-0.36-0.14-0.69-0.36-0.97-0.65
	c-0.88-0.88-1.09-2.17-0.64-3.25l-4.4-4.4L9.11,25.81c-0.98,0.98-0.98,2.56,0,3.54L26.06,46.3c0.98,0.98,2.56,0.98,3.54,0
	l16.87-16.87C47.44,28.45,47.44,26.87,46.47,25.89"/>
</svg>
