<?xml version="1.0" encoding="utf-8"?>
<!-- Generator: Adobe Illustrator 16.0.0, SVG Export Plug-In . SVG Version: 6.00 Build 0)  -->
<!DOCTYPE svg PUBLIC "-//W3C//DTD SVG 1.1//EN" "http://www.w3.org/Graphics/SVG/1.1/DTD/svg11.dtd">
<svg version="1.1" id="enzyme" xmlns="http://www.w3.org/2000/svg" xmlns:xlink="http://www.w3.org/1999/xlink" x="0px" y="0px"
	 width="55.44px" height="55.44px" viewBox="0 0 55.44 55.44" enable-background="new 0 0 55.44 55.44" xml:space="preserve">
<path fill="#1BABC1" d="M43.5,35.51c-0.29-0.74-0.62-1.46-0.95-2.18c-2.61-5.69-5.35-11.32-8.21-16.88c-0.4-0.78-0.8-1.56-1.22-2.32
	c-0.42-0.75-0.91-1.47-1.53-2.05c-1.01-0.96-2.36-1.53-3.74-1.62h-0.64c-1.43,0.07-2.82,0.67-3.84,1.67c-0.61,0.57-1.08,1.28-1.48,2
	c-0.42,0.75-0.81,1.52-1.21,2.29c-1.92,3.73-3.79,7.49-5.6,11.28c-1.08,2.27-2.15,4.54-3.18,6.83c-0.42,0.95-0.81,1.94-0.96,2.98
	c-0.27,1.76,0.12,3.6,1.06,5.11c0.81,1.31,2.02,2.37,3.44,2.98c1.11,0.48,2.31,0.69,3.51,0.62c1.61-0.08,3.16-0.66,4.52-1.5
	c1.52-0.93,2.82-2.17,4.03-3.47c1.12,1.21,2.33,2.37,3.71,3.27c1.34,0.88,2.87,1.52,4.48,1.67c1.75,0.18,3.56-0.25,5.02-1.22
	c1.29-0.86,2.3-2.09,2.88-3.54c0.37-0.93,0.55-1.93,0.54-2.93C44.11,37.48,43.87,36.47,43.5,35.51z M27.5,37.83
	c-0.44-0.51-0.83-1.08-1.21-1.63c-0.65-0.96-1.25-1.96-1.72-3.02c-0.39-0.88-0.71-1.8-0.83-2.76c-0.09-0.76-0.07-1.55,0.21-2.27
	c0.25-0.67,0.73-1.26,1.34-1.65c1.45-0.93,3.51-0.83,4.82,0.3c0.67,0.56,1.06,1.4,1.16,2.26c0.13,1.14-0.13,2.29-0.53,3.35
	C29.98,34.4,28.78,36.17,27.5,37.83z M41.69,40.25c-0.39,1.33-1.32,2.5-2.53,3.17c-1.08,0.6-2.36,0.81-3.58,0.61
	c-1.55-0.24-2.94-1.06-4.14-2.03c-0.88-0.71-1.68-1.52-2.44-2.36c1.2-1.52,2.34-3.12,3.2-4.86c0.76-1.53,1.33-3.18,1.39-4.89
	c0.03-1.09-0.17-2.2-0.68-3.16c-0.67-1.3-1.86-2.29-3.22-2.77c-1.28-0.46-2.7-0.5-4-0.12c-1.23,0.35-2.35,1.09-3.12,2.11
	c-0.68,0.89-1.06,1.99-1.15,3.1c-0.14,1.6,0.26,3.2,0.87,4.67c0.9,2.15,2.23,4.1,3.69,5.91c-0.66,0.76-1.38,1.48-2.14,2.13
	c-1.19,1.01-2.55,1.88-4.09,2.21c-1.25,0.28-2.59,0.14-3.73-0.44c-1.34-0.67-2.36-1.92-2.75-3.37c-0.29-1.06-0.23-2.21,0.12-3.25
	c0.29-0.86,0.69-1.68,1.06-2.5c2.58-5.63,5.29-11.2,8.12-16.7c0.42-0.82,0.84-1.64,1.29-2.45c0.37-0.65,0.79-1.29,1.39-1.74
	c0.65-0.51,1.45-0.77,2.27-0.76c0.84-0.01,1.68,0.3,2.33,0.84c0.64,0.53,1.07,1.25,1.46,1.98c0.88,1.65,1.72,3.31,2.56,4.97
	c2.4,4.75,4.71,9.55,6.92,14.39c0.33,0.75,0.69,1.5,0.92,2.29C41.97,38.22,41.98,39.28,41.69,40.25z"/>
</svg>
