<?xml version="1.0" encoding="utf-8"?>
<!-- Generator: Adobe Illustrator 16.0.0, SVG Export Plug-In . SVG Version: 6.00 Build 0)  -->
<!DOCTYPE svg PUBLIC "-//W3C//DTD SVG 1.1//EN" "http://www.w3.org/Graphics/SVG/1.1/DTD/svg11.dtd">
<svg version="1.1" id="reactjs" xmlns="http://www.w3.org/2000/svg" xmlns:xlink="http://www.w3.org/1999/xlink" x="0px" y="0px"
	 width="55.44px" height="55.44px" viewBox="0 0 55.44 55.44" enable-background="new 0 0 55.44 55.44" xml:space="preserve">
<g>
	<path fill="#1BABC1" d="M41.37,20.87c-0.45-0.15-0.9-0.3-1.35-0.43c0.08-0.3,0.14-0.61,0.21-0.92c1.02-4.96,0.35-8.96-1.93-10.28
		c-2.19-1.26-5.77,0.05-9.38,3.2c-0.36,0.31-0.7,0.63-1.04,0.96c-0.23-0.22-0.46-0.43-0.7-0.64c-3.79-3.37-7.59-4.78-9.87-3.46
		c-2.19,1.27-2.83,5.03-1.91,9.73c0.09,0.47,0.19,0.93,0.31,1.39c-0.54,0.15-1.06,0.32-1.55,0.49c-4.44,1.55-7.28,3.98-7.28,6.49
		c0,2.6,3.04,5.21,7.67,6.79c0.38,0.13,0.75,0.25,1.14,0.36c-0.12,0.5-0.23,1-0.33,1.5c-0.88,4.62-0.19,8.29,1.99,9.55
		c2.25,1.3,6.03-0.04,9.71-3.25c0.29-0.25,0.58-0.52,0.88-0.81c0.37,0.36,0.75,0.7,1.13,1.04c3.57,3.07,7.09,4.31,9.27,3.05
		c2.25-1.3,2.98-5.25,2.03-10.04c-0.07-0.37-0.16-0.74-0.25-1.12c0.27-0.08,0.53-0.16,0.78-0.24c4.81-1.59,7.94-4.17,7.94-6.81
		C48.83,24.88,45.9,22.43,41.37,20.87z M30.09,13.8c3.1-2.7,5.99-3.76,7.31-3c1.4,0.81,1.95,4.08,1.07,8.36
		c-0.06,0.28-0.12,0.56-0.19,0.83c-1.74-0.4-3.63-0.7-5.61-0.88c-1.15-1.64-2.35-3.13-3.54-4.43C29.44,14.38,29.76,14.09,30.09,13.8
		z M19.26,29.55c0.38,0.73,0.78,1.46,1.19,2.17c0.42,0.73,0.86,1.45,1.32,2.16c-1.37-0.15-2.67-0.36-3.87-0.62
		C18.27,32.06,18.73,30.82,19.26,29.55z M19.26,25.34c-0.52-1.24-0.97-2.46-1.33-3.63c1.2-0.27,2.47-0.49,3.8-0.66
		c-0.44,0.69-0.87,1.4-1.29,2.12C20.03,23.88,19.64,24.61,19.26,25.34z M20.21,27.45c0.55-1.15,1.15-2.28,1.79-3.38v0
		c0.64-1.1,1.31-2.19,2.03-3.24c1.25-0.09,2.53-0.14,3.82-0.14c1.3,0,2.58,0.05,3.83,0.15c0.71,1.05,1.39,2.13,2.02,3.23
		c0.64,1.1,1.24,2.23,1.81,3.37c-0.56,1.15-1.17,2.29-1.8,3.4l0,0c-0.64,1.1-1.31,2.19-2.01,3.25c-1.24,0.09-2.53,0.13-3.84,0.13
		c-1.3,0-2.57-0.04-3.8-0.12c-0.72-1.06-1.41-2.14-2.05-3.25C21.36,29.72,20.77,28.59,20.21,27.45z M35.26,31.71
		c0.42-0.73,0.83-1.47,1.22-2.22c0.56,1.28,1.03,2.52,1.41,3.69c-1.22,0.28-2.53,0.5-3.92,0.67C34.42,33.14,34.84,32.43,35.26,31.71
		z M36.46,25.34c-0.39-0.73-0.79-1.46-1.21-2.18c-0.41-0.71-0.84-1.41-1.28-2.1c1.34,0.17,2.62,0.39,3.83,0.67
		C37.44,22.88,36.99,24.1,36.46,25.34z M27.87,15.97c0.83,0.9,1.65,1.89,2.47,2.98c-1.65-0.08-3.31-0.08-4.96,0
		C26.2,17.87,27.03,16.87,27.87,15.97z M18.21,10.85c1.4-0.81,4.51,0.35,7.78,3.25c0.21,0.19,0.42,0.38,0.63,0.58
		c-1.22,1.31-2.42,2.8-3.58,4.42c-1.97,0.18-3.86,0.47-5.6,0.87c-0.11-0.43-0.21-0.86-0.29-1.29l0,0
		C16.37,14.66,16.89,11.62,18.21,10.85z M16.16,32.82c-0.35-0.1-0.69-0.21-1.04-0.32c-2.05-0.7-3.73-1.61-4.89-2.6
		c-1.04-0.89-1.57-1.78-1.57-2.5c0-1.53,2.28-3.48,6.08-4.8c0.48-0.17,0.96-0.32,1.44-0.46c0.53,1.71,1.21,3.49,2.05,5.3
		C17.39,29.28,16.69,31.09,16.16,32.82z M25.87,40.99c-1.63,1.42-3.26,2.43-4.7,2.94l0,0c-1.29,0.46-2.32,0.47-2.94,0.11
		c-1.32-0.76-1.87-3.71-1.12-7.66c0.09-0.47,0.19-0.93,0.31-1.39c1.72,0.38,3.62,0.65,5.65,0.82c1.16,1.63,2.38,3.13,3.6,4.45
		C26.41,40.51,26.15,40.75,25.87,40.99z M27.92,38.97c-0.85-0.92-1.7-1.93-2.52-3.02c0.8,0.03,1.62,0.05,2.45,0.05
		c0.86,0,1.7-0.02,2.53-0.05C29.57,37.04,28.74,38.06,27.92,38.97z M38.81,41.46c-0.25,1.34-0.75,2.24-1.37,2.6
		c-1.32,0.77-4.15-0.23-7.2-2.85c-0.35-0.3-0.7-0.62-1.05-0.96c1.18-1.29,2.36-2.8,3.52-4.47c2.03-0.18,3.95-0.47,5.68-0.88
		c0.08,0.35,0.16,0.68,0.23,1.01C39.02,38.04,39.08,39.96,38.81,41.46z M40.33,32.51L40.33,32.51c-0.23,0.08-0.46,0.15-0.71,0.22
		c-0.53-1.68-1.25-3.47-2.12-5.31c0.83-1.8,1.53-3.57,2.04-5.24c0.43,0.12,0.85,0.25,1.25,0.39c3.88,1.34,6.25,3.31,6.25,4.83
		C47.04,29.02,44.48,31.13,40.33,32.51z"/>
	<path fill="#1BABC1" d="M27.85,31.15c2.07,0,3.75-1.68,3.75-3.75c0-2.07-1.68-3.75-3.75-3.75c-2.07,0-3.75,1.68-3.75,3.75
		C24.1,29.47,25.78,31.15,27.85,31.15z"/>
</g>
</svg>
