<?xml version="1.0" encoding="utf-8"?>
<!-- Generator: Adobe Illustrator 16.0.0, SVG Export Plug-In . SVG Version: 6.00 Build 0)  -->
<!DOCTYPE svg PUBLIC "-//W3C//DTD SVG 1.1//EN" "http://www.w3.org/Graphics/SVG/1.1/DTD/svg11.dtd">
<svg version="1.1" id="mysql" xmlns="http://www.w3.org/2000/svg" xmlns:xlink="http://www.w3.org/1999/xlink" x="0px" y="0px"
	 width="55.44px" height="55.44px" viewBox="0 0 55.44 55.44" enable-background="new 0 0 55.44 55.44" xml:space="preserve">
<path fill="#1BABC1" d="M47.66,41.39c-2.38-0.06-4.23,0.18-5.78,0.83c-0.45,0.18-1.16,0.18-1.22,0.75c0.24,0.24,0.27,0.62,0.48,0.96
	c0.36,0.6,0.98,1.4,1.55,1.82c0.62,0.48,1.25,0.95,1.91,1.37c1.16,0.72,2.47,1.13,3.6,1.85c0.66,0.42,1.31,0.95,1.97,1.4
	c0.32,0.24,0.53,0.62,0.95,0.77v-0.09c-0.21-0.27-0.27-0.66-0.48-0.95l-0.9-0.87c-0.87-1.16-1.94-2.17-3.1-3.01
	c-0.95-0.66-3.04-1.55-3.43-2.65l-0.06-0.06c0.66-0.06,1.43-0.3,2.06-0.48c1.02-0.27,1.94-0.21,2.98-0.47
	c0.48-0.12,0.95-0.27,1.43-0.42v-0.27c-0.54-0.54-0.92-1.25-1.49-1.76c-1.52-1.31-3.19-2.59-4.92-3.67c-0.92-0.6-2.12-0.98-3.1-1.49
	c-0.36-0.18-0.95-0.27-1.16-0.57c-0.53-0.65-0.84-1.52-1.22-2.3c-0.86-1.64-1.7-3.45-2.44-5.18c-0.54-1.16-0.87-2.32-1.52-3.4
	c-3.07-5.07-6.41-8.13-11.53-11.14c-1.1-0.63-2.41-0.89-3.81-1.22l-2.24-0.12c-0.48-0.21-0.96-0.78-1.37-1.04
	c-1.7-1.07-6.08-3.4-7.33-0.33c-0.8,1.94,1.19,3.85,1.88,4.83c0.51,0.68,1.16,1.46,1.52,2.24c0.21,0.51,0.27,1.04,0.48,1.58
	c0.48,1.31,0.92,2.77,1.55,4c0.33,0.62,0.68,1.28,1.1,1.84c0.24,0.33,0.66,0.48,0.75,1.01c-0.42,0.59-0.45,1.49-0.69,2.23
	c-1.07,3.37-0.65,7.54,0.87,10.02c0.47,0.75,1.61,2.38,3.12,1.76c1.34-0.54,1.05-2.23,1.43-3.72c0.09-0.36,0.03-0.6,0.21-0.83v0.06
	c0.42,0.83,0.84,1.64,1.22,2.47c0.92,1.46,2.53,2.98,3.88,3.99c0.71,0.54,1.28,1.46,2.17,1.79v-0.09h-0.06
	c-0.18-0.27-0.45-0.38-0.68-0.59c-0.54-0.54-1.13-1.19-1.55-1.79c-1.25-1.67-2.35-3.52-3.34-5.43c-0.48-0.93-0.89-1.94-1.28-2.86
	c-0.18-0.36-0.18-0.89-0.48-1.07c-0.45,0.66-1.1,1.22-1.43,2.03c-0.57,1.28-0.62,2.86-0.84,4.5l-0.12,0.06
	c-0.95-0.24-1.28-1.22-1.64-2.05c-0.89-2.12-1.04-5.52-0.27-7.96c0.21-0.62,1.11-2.59,0.75-3.19c-0.18-0.57-0.77-0.89-1.1-1.34
	c-0.39-0.56-0.81-1.28-1.08-1.91c-0.71-1.67-1.07-3.52-1.84-5.19c-0.36-0.78-0.98-1.58-1.49-2.3c-0.57-0.8-1.19-1.37-1.64-2.33
	c-0.15-0.33-0.36-0.86-0.12-1.22C8.83,9.95,8.95,9.86,9.19,9.8c0.39-0.33,1.49,0.09,1.88,0.27c1.1,0.45,2.03,0.86,2.95,1.49
	c0.42,0.3,0.86,0.87,1.4,1.02h0.63c0.95,0.21,2.03,0.06,2.92,0.33c1.58,0.51,3.01,1.25,4.29,2.05c3.9,2.48,7.12,5.99,9.3,10.19
	c0.36,0.69,0.51,1.31,0.83,2.03c0.63,1.46,1.4,2.95,2.03,4.38c0.62,1.4,1.22,2.83,2.12,3.99c0.45,0.62,2.24,0.95,3.04,1.28
	c0.59,0.27,1.52,0.5,2.05,0.83c1.02,0.62,2.03,1.34,2.98,2.03C46.08,40.05,47.57,40.79,47.66,41.39 M17.26,15.49
	c-0.41,0-0.82,0.04-1.22,0.15v0.06h0.06c0.24,0.48,0.66,0.81,0.95,1.22c0.24,0.48,0.45,0.95,0.68,1.43l0.06-0.06
	c0.42-0.29,0.63-0.77,0.63-1.49c-0.18-0.21-0.21-0.42-0.36-0.62C17.89,15.88,17.5,15.73,17.26,15.49"/>
</svg>
