<?xml version="1.0" encoding="utf-8"?>
<!-- Generator: Adobe Illustrator 16.0.0, SVG Export Plug-In . SVG Version: 6.00 Build 0)  -->
<!DOCTYPE svg PUBLIC "-//W3C//DTD SVG 1.1//EN" "http://www.w3.org/Graphics/SVG/1.1/DTD/svg11.dtd">
<svg version="1.1" id="sinon" xmlns="http://www.w3.org/2000/svg" xmlns:xlink="http://www.w3.org/1999/xlink" x="0px" y="0px"
	 width="55.44px" height="55.44px" viewBox="0 0 55.44 55.44" enable-background="new 0 0 55.44 55.44" xml:space="preserve">
<g>
	<path fill="#1BABC1" d="M0.79,31.9l1.28-1.79c0.78,0.81,1.99,1.49,3.52,1.49c1.29,0,1.93-0.6,1.93-1.23c0-0.81-1.03-1.05-2.24-1.35
		c-1.81-0.42-4.13-0.91-4.13-3.44c0-1.84,1.59-3.37,4.2-3.37c1.76,0,3.22,0.53,4.32,1.54l-1.31,1.73c-0.9-0.83-2.09-1.21-3.22-1.21
		c-1.01,0-1.58,0.45-1.58,1.11c0,0.71,1.01,0.95,2.21,1.23C7.58,27.05,9.9,27.6,9.9,30.1c0,2.03-1.44,3.55-4.43,3.55
		C3.34,33.66,1.81,32.94,0.79,31.9z"/>
	<path fill="#1BABC1" d="M12.16,33.46V22.38h2.36v11.07H12.16z"/>
	<path fill="#1BABC1" d="M25.01,33.46l-5.28-7.22v7.22h-2.36V22.38h2.42l5.13,6.96v-6.96h2.36v11.07H25.01z"/>
	<path fill="#1BABC1" d="M29.61,27.93c0-3.34,2.44-5.73,5.78-5.73c3.35,0,5.79,2.39,5.79,5.73c0,3.34-2.44,5.73-5.79,5.73
		C32.05,33.66,29.61,31.27,29.61,27.93z M38.75,27.93c0-2.07-1.33-3.64-3.37-3.64s-3.35,1.56-3.35,3.64c0,2.06,1.31,3.64,3.35,3.64
		S38.75,29.99,38.75,27.93z"/>
	<path fill="#1BABC1" d="M51.14,33.46l-5.28-7.22v7.22h-2.36V22.38h2.42l5.13,6.96v-6.96h2.36v11.07H51.14z"/>
</g>
</svg>
