<?xml version="1.0" encoding="utf-8"?>
<!-- Generator: Adobe Illustrator 16.0.0, SVG Export Plug-In . SVG Version: 6.00 Build 0)  -->
<!DOCTYPE svg PUBLIC "-//W3C//DTD SVG 1.1//EN" "http://www.w3.org/Graphics/SVG/1.1/DTD/svg11.dtd">
<svg version="1.1" id="github" xmlns="http://www.w3.org/2000/svg" xmlns:xlink="http://www.w3.org/1999/xlink" x="0px" y="0px"
	 width="55.44px" height="55.44px" viewBox="0 0 55.44 55.44" enable-background="new 0 0 55.44 55.44" xml:space="preserve">
<g>
	<path fill="#1DABC1" d="M51.51,14.56c-2.46-4.22-5.8-7.57-10.03-10.03c-4.22-2.47-8.83-3.69-13.83-3.69c-5,0-9.61,1.23-13.83,3.69
		c-4.22,2.46-7.56,5.8-10.02,10.03c-2.46,4.22-3.69,8.83-3.69,13.82c0,6,1.75,11.4,5.25,16.2c3.5,4.79,8.03,8.11,13.58,9.95
		c0.65,0.12,1.12,0.03,1.44-0.25c0.31-0.29,0.47-0.65,0.47-1.08c0-0.07-0.01-0.72-0.02-1.94c-0.01-1.22-0.02-2.29-0.02-3.19
		l-0.82,0.14c-0.53,0.1-1.19,0.14-1.99,0.13c-0.8-0.01-1.63-0.09-2.49-0.25c-0.86-0.16-1.66-0.51-2.4-1.08
		c-0.74-0.56-1.27-1.29-1.58-2.2l-0.36-0.83c-0.24-0.55-0.62-1.16-1.13-1.83c-0.51-0.67-1.04-1.12-1.56-1.36l-0.25-0.18
		c-0.17-0.12-0.32-0.26-0.47-0.43c-0.14-0.17-0.25-0.33-0.32-0.5c-0.07-0.17-0.01-0.31,0.18-0.42c0.19-0.11,0.54-0.16,1.04-0.16
		l0.72,0.11c0.48,0.1,1.07,0.38,1.77,0.86c0.71,0.48,1.28,1.1,1.74,1.86c0.55,0.98,1.21,1.73,1.99,2.24
		c0.78,0.52,1.56,0.77,2.35,0.77c0.79,0,1.47-0.06,2.04-0.18c0.57-0.12,1.11-0.3,1.61-0.54c0.22-1.6,0.8-2.83,1.76-3.69
		c-1.36-0.14-2.59-0.36-3.68-0.64c-1.09-0.29-2.21-0.76-3.37-1.4c-1.16-0.64-2.12-1.45-2.89-2.41c-0.77-0.96-1.39-2.21-1.88-3.76
		c-0.49-1.55-0.74-3.35-0.74-5.38c0-2.89,0.94-5.36,2.83-7.39c-0.88-2.17-0.8-4.61,0.25-7.32c0.69-0.22,1.72-0.05,3.08,0.48
		c1.36,0.54,2.36,1,2.99,1.38c0.64,0.38,1.14,0.71,1.52,0.97c2.23-0.62,4.52-0.93,6.89-0.93c2.37,0,4.67,0.31,6.89,0.93l1.36-0.86
		c0.93-0.58,2.03-1.1,3.3-1.58c1.27-0.48,2.24-0.61,2.91-0.4c1.08,2.7,1.17,5.14,0.29,7.32c1.89,2.03,2.83,4.5,2.83,7.39
		c0,2.03-0.25,3.83-0.73,5.4c-0.49,1.57-1.12,2.82-1.9,3.77c-0.78,0.95-1.75,1.74-2.91,2.39c-1.16,0.64-2.28,1.11-3.37,1.4
		c-1.09,0.29-2.31,0.5-3.68,0.65c1.24,1.08,1.87,2.77,1.87,5.09v7.57c0,0.43,0.15,0.79,0.45,1.08c0.3,0.28,0.77,0.37,1.42,0.25
		c5.55-1.84,10.08-5.16,13.58-9.95c3.5-4.79,5.25-10.19,5.25-16.2C55.21,23.38,53.97,18.78,51.51,14.56z"/>
</g>
</svg>
