<?xml version="1.0" encoding="utf-8"?>
<!-- Generator: Adobe Illustrator 16.0.0, SVG Export Plug-In . SVG Version: 6.00 Build 0)  -->
<!DOCTYPE svg PUBLIC "-//W3C//DTD SVG 1.1//EN" "http://www.w3.org/Graphics/SVG/1.1/DTD/svg11.dtd">
<svg version="1.1" id="github-list" xmlns="http://www.w3.org/2000/svg" xmlns:xlink="http://www.w3.org/1999/xlink" x="0px"
	 y="0px" width="55.44px" height="55.44px" viewBox="0 0 55.44 55.44" enable-background="new 0 0 55.44 55.44"
	 xml:space="preserve">
<g>
	<path fill="#1DABC1" d="M40.94,20.39c-1.37-2.35-3.23-4.21-5.58-5.58c-2.35-1.37-4.92-2.06-7.7-2.06s-5.35,0.68-7.7,2.06
		c-2.35,1.37-4.21,3.23-5.58,5.58c-1.37,2.35-2.06,4.91-2.06,7.7c0,3.34,0.98,6.35,2.93,9.02c1.95,2.67,4.47,4.52,7.56,5.54
		c0.36,0.07,0.63,0.02,0.8-0.14c0.17-0.16,0.26-0.36,0.26-0.6c0-0.04,0-0.4-0.01-1.08c-0.01-0.68-0.01-1.28-0.01-1.78l-0.46,0.08
		c-0.29,0.06-0.66,0.08-1.11,0.07c-0.45-0.01-0.91-0.05-1.39-0.14c-0.48-0.09-0.92-0.29-1.34-0.6c-0.41-0.31-0.71-0.72-0.88-1.23
		l-0.2-0.46c-0.13-0.31-0.34-0.65-0.63-1.02c-0.29-0.37-0.58-0.62-0.87-0.76l-0.14-0.1c-0.09-0.07-0.18-0.15-0.26-0.24
		c-0.08-0.09-0.14-0.19-0.18-0.28c-0.04-0.09-0.01-0.17,0.1-0.23c0.11-0.06,0.3-0.09,0.58-0.09l0.4,0.06
		c0.27,0.05,0.6,0.21,0.99,0.48c0.39,0.27,0.72,0.61,0.97,1.04c0.31,0.55,0.68,0.96,1.11,1.25c0.43,0.29,0.87,0.43,1.31,0.43
		s0.82-0.03,1.14-0.1s0.62-0.17,0.9-0.3c0.12-0.89,0.45-1.58,0.98-2.06c-0.76-0.08-1.44-0.2-2.05-0.36
		c-0.61-0.16-1.23-0.42-1.88-0.78c-0.65-0.36-1.18-0.81-1.61-1.34c-0.43-0.53-0.78-1.23-1.05-2.1c-0.27-0.87-0.41-1.87-0.41-3
		c0-1.61,0.53-2.98,1.58-4.12c-0.49-1.21-0.45-2.57,0.14-4.07c0.39-0.12,0.96-0.03,1.72,0.27c0.76,0.3,1.31,0.56,1.67,0.77
		c0.35,0.21,0.64,0.39,0.85,0.54c1.24-0.34,2.52-0.52,3.84-0.52c1.32,0,2.6,0.17,3.83,0.52l0.76-0.48c0.52-0.32,1.13-0.61,1.84-0.88
		c0.71-0.27,1.25-0.34,1.62-0.22c0.6,1.51,0.65,2.86,0.16,4.07c1.05,1.13,1.58,2.5,1.58,4.12c0,1.13-0.14,2.13-0.41,3
		c-0.27,0.88-0.62,1.57-1.06,2.1c-0.43,0.53-0.97,0.97-1.62,1.33c-0.65,0.36-1.27,0.62-1.88,0.78c-0.6,0.16-1.29,0.28-2.05,0.36
		c0.69,0.6,1.04,1.54,1.04,2.84v4.21c0,0.24,0.08,0.44,0.25,0.6c0.17,0.16,0.43,0.21,0.79,0.14c3.09-1.03,5.61-2.87,7.56-5.54
		c1.95-2.67,2.93-5.68,2.93-9.02C43,25.3,42.31,22.74,40.94,20.39z"/>
</g>
</svg>
