<?xml version="1.0" encoding="utf-8"?>
<!-- Generator: Adobe Illustrator 16.0.0, SVG Export Plug-In . SVG Version: 6.00 Build 0)  -->
<!DOCTYPE svg PUBLIC "-//W3C//DTD SVG 1.1//EN" "http://www.w3.org/Graphics/SVG/1.1/DTD/svg11.dtd">
<svg version="1.1" id="linkedin" xmlns="http://www.w3.org/2000/svg" xmlns:xlink="http://www.w3.org/1999/xlink" x="0px" y="0px"
	width="55.44px" height="55.44px" viewBox="0 0 55.44 55.44" enable-background="new 0 0 55.44 55.44" xml:space="preserve">
	<path fill="#00b3c8" d="M39.39,13.98H15.97c-1.1-0.01-2.01,0.88-2.02,1.98v23.52c0.01,1.1,0.92,1.99,2.02,1.98h23.42
		c1.11,0.01,2.01-0.88,2.02-1.98V15.96C41.4,14.86,40.49,13.97,39.39,13.98z M22.09,37.39h-4.09V24.28h4.09V37.39z M20.06,22.48
		c-1.31,0-2.37-1.06-2.37-2.37c0-1.31,1.06-2.37,2.37-2.37c1.31,0,2.37,1.06,2.37,2.37l0,0c0.01,1.31-1.05,2.38-2.35,2.38
		c-0.01,0-0.02,0-0.03,0L20.06,22.48z M37.36,37.39h-4.07v-6.37c0-1.52,0-3.47-2.12-3.47s-2.45,1.66-2.45,3.37v6.49h-4.07V24.29h3.91
		v1.8l0,0c0.8-1.36,2.28-2.17,3.86-2.12c4.12,0,4.88,2.66,4.88,6.25L37.36,37.39z"/>
</svg>
