<?xml version="1.0" encoding="utf-8"?>
<!-- Generator: Adobe Illustrator 16.0.0, SVG Export Plug-In . SVG Version: 6.00 Build 0)  -->
<!DOCTYPE svg PUBLIC "-//W3C//DTD SVG 1.1//EN" "http://www.w3.org/Graphics/SVG/1.1/DTD/svg11.dtd">
<svg version="1.1" id="linkedin" xmlns="http://www.w3.org/2000/svg" xmlns:xlink="http://www.w3.org/1999/xlink" x="0px" y="0px"
	 width="55.44px" height="55.44px" viewBox="0 0 55.44 55.44" enable-background="new 0 0 55.44 55.44" xml:space="preserve">
<path fill="#1DABC1" d="M48.77,2.97H6.59C4.6,2.95,2.98,4.55,2.95,6.54v42.37c0.03,1.99,1.65,3.58,3.64,3.57h42.18
	c1.99,0.01,3.62-1.58,3.64-3.57V6.54C52.39,4.55,50.76,2.95,48.77,2.97z M17.62,45.14h-7.36V21.51h7.36V45.14z M13.95,18.28
	c-2.36,0-4.27-1.91-4.27-4.27c0-2.36,1.91-4.27,4.27-4.27c2.36,0,4.27,1.91,4.27,4.27l0,0c0.01,2.36-1.89,4.28-4.24,4.29
	c-0.02,0-0.03,0-0.05,0L13.95,18.28z M45.1,45.14h-7.33V33.66c0-2.73,0-6.25-3.81-6.25c-3.81,0-4.41,3-4.41,6.06v11.69h-7.33V21.54
	h7.05v3.23l0,0c1.44-2.45,4.11-3.92,6.95-3.81c7.43,0,8.8,4.79,8.8,11.26L45.1,45.14z"/>
</svg>
