<?xml version="1.0" encoding="utf-8"?>
<!-- Generator: Adobe Illustrator 16.0.0, SVG Export Plug-In . SVG Version: 6.00 Build 0)  -->
<!DOCTYPE svg PUBLIC "-//W3C//DTD SVG 1.1//EN" "http://www.w3.org/Graphics/SVG/1.1/DTD/svg11.dtd">
<svg version="1.1" id="Layer_1" xmlns="http://www.w3.org/2000/svg" xmlns:xlink="http://www.w3.org/1999/xlink" x="0px" y="0px"
	 width="208.58px" height="208.58px" viewBox="0 0 208.58 208.58" enable-background="new 0 0 208.58 208.58" xml:space="preserve">
<circle fill="#696868" cx="104.28" cy="14.79" r="3.92"/>
<circle fill="#696868" cx="104.28" cy="3.92" r="3.92"/>
<circle fill="#696868" cx="104.28" cy="25.66" r="3.92"/>
<circle fill="#696868" cx="104.28" cy="193.79" r="3.92"/>
<circle fill="#696868" cx="104.28" cy="204.66" r="3.92"/>
<circle fill="#696868" cx="104.28" cy="182.92" r="3.92"/>
<circle fill="#696868" cx="86.86" cy="5.44" r="3.92"/>
<circle fill="#696868" cx="90.63" cy="26.86" r="3.92"/>
<circle fill="#696868" cx="121.71" cy="203.14" r="3.92"/>
<circle fill="#696868" cx="117.94" cy="181.72" r="3.92"/>
<path fill="#696868" d="M66.28,11.31c0.74,2.03,2.99,3.08,5.02,2.34c2.03-0.74,3.08-2.99,2.34-5.02c-0.74-2.03-2.99-3.08-5.02-2.34
	C66.58,7.03,65.54,9.28,66.28,11.31z"/>
<path fill="#696868" d="M73.71,31.75c0.74,2.03,2.99,3.08,5.02,2.34c2.03-0.74,3.08-2.99,2.34-5.02c-0.74-2.03-2.99-3.08-5.02-2.34
	C74.02,27.46,72.97,29.71,73.71,31.75z"/>
<path fill="#696868" d="M134.94,199.95c0.74,2.03,2.98,3.08,5.02,2.34c2.03-0.74,3.08-2.99,2.34-5.02
	c-0.74-2.03-2.99-3.08-5.02-2.34C135.24,195.67,134.2,197.91,134.94,199.95z"/>
<circle fill="#696868" cx="131.18" cy="178.17" r="3.92"/>
<path fill="#696868" d="M50.71,19.32c1.08,1.87,3.48,2.52,5.35,1.43c1.87-1.08,2.52-3.48,1.43-5.35c-1.08-1.87-3.48-2.52-5.35-1.43
	C50.27,15.05,49.63,17.45,50.71,19.32z"/>
<path fill="#696868" d="M61.58,38.16c1.08,1.87,3.47,2.51,5.35,1.43c1.88-1.08,2.52-3.48,1.44-5.35s-3.48-2.51-5.35-1.43
	S60.5,36.28,61.58,38.16z"/>
<path fill="#696868" d="M151.08,193.17c1.08,1.87,3.47,2.51,5.35,1.43c1.87-1.08,2.51-3.48,1.43-5.35
	c-1.08-1.87-3.48-2.51-5.35-1.43C150.64,188.9,150,191.3,151.08,193.17z"/>
<circle fill="#696868" cx="143.6" cy="172.38" r="3.92"/>
<path fill="#696868" d="M36.77,29.91c1.39,1.66,3.86,1.87,5.52,0.48c1.65-1.39,1.87-3.86,0.48-5.52s-3.86-1.87-5.52-0.48
	C35.59,25.79,35.38,28.26,36.77,29.91z"/>
<path fill="#696868" d="M50.75,46.57c1.39,1.66,3.86,1.87,5.51,0.48c1.66-1.39,1.88-3.86,0.48-5.52c-1.39-1.66-3.86-1.87-5.52-0.48
	S49.36,44.92,50.75,46.57z"/>
<path fill="#696868" d="M165.81,183.69c1.39,1.66,3.86,1.87,5.52,0.48c1.65-1.39,1.87-3.86,0.48-5.52
	c-1.39-1.65-3.86-1.87-5.52-0.48C164.63,179.56,164.42,182.04,165.81,183.69z"/>
<circle fill="#696868" cx="154.83" cy="164.52" r="3.92"/>
<path fill="#696868" d="M24.88,42.77c1.66,1.39,4.13,1.17,5.52-0.48c1.39-1.66,1.17-4.13-0.48-5.52s-4.13-1.17-5.52,0.48
	C23.01,38.91,23.23,41.38,24.88,42.77z"/>
<path fill="#696868" d="M41.54,56.75c1.65,1.39,4.12,1.17,5.51-0.48s1.18-4.13-0.48-5.52c-1.66-1.39-4.13-1.17-5.52,0.48
	C39.67,52.89,39.88,55.36,41.54,56.75z"/>
<path fill="#696868" d="M178.66,171.8c1.65,1.39,4.12,1.18,5.52-0.48c1.39-1.66,1.17-4.12-0.49-5.52c-1.65-1.39-4.12-1.17-5.52,0.48
	C176.79,167.94,177,170.41,178.66,171.8z"/>
<path fill="#696868" d="M162,157.82c1.66,1.39,4.12,1.17,5.52-0.48c1.39-1.66,1.17-4.13-0.48-5.52c-1.65-1.39-4.12-1.17-5.52,0.48
	C160.13,153.96,160.34,156.44,162,157.82z"/>
<path fill="#696868" d="M15.4,57.49c1.88,1.08,4.27,0.44,5.35-1.43c1.08-1.87,0.44-4.27-1.43-5.35c-1.87-1.08-4.27-0.44-5.35,1.44
	C12.89,54.01,13.54,56.41,15.4,57.49z"/>
<path fill="#696868" d="M34.24,68.36c1.87,1.08,4.26,0.44,5.35-1.43c1.08-1.87,0.44-4.27-1.43-5.35c-1.87-1.08-4.27-0.44-5.35,1.44
	C31.72,64.89,32.36,67.28,34.24,68.36z"/>
<path fill="#696868" d="M189.26,157.86c1.87,1.08,4.26,0.44,5.35-1.43c1.08-1.87,0.44-4.27-1.44-5.35
	c-1.87-1.08-4.27-0.44-5.35,1.43C186.74,154.38,187.38,156.78,189.26,157.86z"/>
<circle fill="#696868" cx="172.38" cy="143.6" r="3.92"/>
<path fill="#696868" d="M8.63,73.63c2.04,0.74,4.28-0.31,5.02-2.34s-0.31-4.28-2.34-5.02c-2.03-0.74-4.29,0.31-5.02,2.34
	C5.54,70.65,6.6,72.89,8.63,73.63z"/>
<path fill="#696868" d="M29.07,81.07c2.03,0.74,4.28-0.31,5.02-2.34c0.74-2.03-0.3-4.28-2.34-5.02c-2.03-0.74-4.28,0.31-5.02,2.34
	C25.99,78.08,27.03,80.33,29.07,81.07z"/>
<path fill="#696868" d="M197.27,142.29c2.03,0.74,4.28-0.3,5.02-2.34c0.73-2.03-0.31-4.28-2.35-5.02c-2.03-0.74-4.28,0.31-5.02,2.34
	C194.19,139.3,195.24,141.55,197.27,142.29z"/>
<circle fill="#696868" cx="178.17" cy="131.17" r="3.92"/>
<path fill="#696868" d="M4.76,90.71c2.13,0.37,4.16-1.05,4.54-3.18c0.37-2.13-1.05-4.16-3.18-4.54c-2.13-0.37-4.16,1.05-4.54,3.18
	C1.2,88.3,2.63,90.33,4.76,90.71z"/>
<path fill="#696868" d="M26.18,94.49c2.13,0.38,4.16-1.05,4.53-3.18c0.38-2.13-1.04-4.16-3.18-4.54c-2.13-0.37-4.16,1.05-4.54,3.18
	C22.63,92.08,24.05,94.11,26.18,94.49z"/>
<path fill="#696868" d="M202.46,125.57c2.13,0.38,4.16-1.04,4.54-3.18c0.37-2.12-1.05-4.16-3.18-4.53
	c-2.13-0.38-4.16,1.04-4.54,3.18C198.9,123.16,200.33,125.19,202.46,125.57z"/>
<path fill="#696868" d="M181.04,121.79c2.13,0.38,4.16-1.04,4.54-3.18c0.38-2.13-1.05-4.16-3.18-4.54
	c-2.13-0.38-4.16,1.05-4.54,3.18C177.49,119.38,178.91,121.42,181.04,121.79z"/>
<path fill="#696868" d="M3.91,108.2c2.17,0,3.92-1.76,3.92-3.92c0-2.16-1.75-3.92-3.92-3.92c-2.16,0-3.92,1.76-3.92,3.92
	C-0.01,106.45,1.76,108.2,3.91,108.2z"/>
<path fill="#696868" d="M25.67,108.2c2.16,0,3.91-1.75,3.91-3.92c0.01-2.16-1.75-3.92-3.91-3.92c-2.16,0-3.91,1.76-3.91,3.92
	C21.75,106.44,23.5,108.2,25.67,108.2z"/>
<path fill="#696868" d="M204.66,108.2c2.16,0,3.92-1.75,3.92-3.92c0-2.16-1.76-3.91-3.92-3.91c-2.16,0-3.92,1.75-3.92,3.91
	C200.74,106.44,202.5,108.2,204.66,108.2z"/>
<path fill="#696868" d="M182.91,108.2c2.17,0,3.92-1.75,3.92-3.92c0-2.16-1.75-3.92-3.92-3.92c-2.16,0-3.92,1.75-3.92,3.92
	C179,106.44,180.75,108.2,182.91,108.2z"/>
<path fill="#696868" d="M6.12,125.57c2.13-0.38,3.55-2.41,3.18-4.54c-0.38-2.13-2.41-3.55-4.54-3.18c-2.13,0.38-3.55,2.41-3.18,4.54
	C1.95,124.52,3.99,125.94,6.12,125.57z"/>
<path fill="#696868" d="M27.54,121.79c2.12-0.38,3.55-2.41,3.17-4.54c-0.37-2.13-2.4-3.55-4.54-3.18c-2.13,0.38-3.55,2.41-3.17,4.54
	C23.38,120.74,25.41,122.17,27.54,121.79z"/>
<path fill="#696868" d="M203.81,90.71c2.13-0.37,3.55-2.4,3.18-4.54c-0.38-2.12-2.41-3.55-4.54-3.17c-2.13,0.38-3.55,2.4-3.18,4.54
	C199.65,89.66,201.69,91.08,203.81,90.71z"/>
<path fill="#696868" d="M182.4,94.48c2.14-0.38,3.55-2.4,3.18-4.54c-0.38-2.13-2.41-3.55-4.54-3.18c-2.13,0.38-3.55,2.41-3.18,4.54
	C178.24,93.44,180.27,94.86,182.4,94.48z"/>
<path fill="#696868" d="M11.3,142.29c2.04-0.74,3.08-2.99,2.34-5.02c-0.74-2.03-2.99-3.08-5.02-2.34c-2.03,0.74-3.08,2.99-2.34,5.02
	C7.02,141.98,9.28,143.03,11.3,142.29z"/>
<path fill="#696868" d="M31.75,134.85c2.03-0.74,3.08-2.99,2.34-5.02c-0.73-2.03-2.98-3.08-5.02-2.35
	c-2.03,0.74-3.08,2.99-2.34,5.02C27.46,134.54,29.71,135.59,31.75,134.85z"/>
<path fill="#696868" d="M199.95,73.63c2.03-0.74,3.08-2.98,2.34-5.02c-0.74-2.03-2.99-3.07-5.02-2.33
	c-2.03,0.74-3.08,2.98-2.34,5.02C195.66,73.32,197.91,74.37,199.95,73.63z"/>
<path fill="#696868" d="M179.51,81.07c2.04-0.74,3.08-2.98,2.35-5.02c-0.74-2.04-2.99-3.08-5.02-2.34
	c-2.03,0.74-3.08,2.99-2.34,5.02C175.23,80.76,177.48,81.81,179.51,81.07z"/>
<path fill="#696868" d="M19.32,157.86c1.88-1.08,2.52-3.48,1.44-5.35c-1.09-1.87-3.48-2.51-5.35-1.44
	c-1.87,1.08-2.51,3.48-1.43,5.35C15.04,158.3,17.45,158.93,19.32,157.86z"/>
<path fill="#696868" d="M38.15,146.98c1.87-1.08,2.51-3.47,1.43-5.35c-1.08-1.87-3.47-2.52-5.35-1.44
	c-1.87,1.09-2.51,3.48-1.43,5.35C33.89,147.42,36.28,148.06,38.15,146.98z"/>
<path fill="#696868" d="M193.17,57.48c1.87-1.08,2.52-3.47,1.44-5.35c-1.08-1.87-3.47-2.51-5.35-1.43
	c-1.87,1.08-2.52,3.47-1.44,5.35C188.9,57.92,191.3,58.56,193.17,57.48z"/>
<path fill="#696868" d="M174.33,68.36c1.88-1.08,2.52-3.47,1.44-5.35c-1.08-1.88-3.48-2.52-5.35-1.44
	c-1.87,1.08-2.51,3.48-1.43,5.35C170.07,68.79,172.46,69.44,174.33,68.36z"/>
<path fill="#696868" d="M29.91,171.8c1.66-1.39,1.87-3.86,0.49-5.52c-1.39-1.66-3.86-1.87-5.52-0.48c-1.65,1.39-1.87,3.87-0.48,5.52
	C25.78,172.97,28.26,173.18,29.91,171.8z"/>
<path fill="#696868" d="M46.57,157.81c1.65-1.39,1.87-3.86,0.48-5.51c-1.38-1.66-3.86-1.88-5.52-0.49
	c-1.66,1.39-1.87,3.87-0.48,5.52C42.45,158.99,44.92,159.21,46.57,157.81z"/>
<path fill="#696868" d="M183.69,42.76c1.66-1.39,1.88-3.86,0.49-5.52c-1.39-1.65-3.86-1.87-5.52-0.47
	c-1.65,1.39-1.88,3.86-0.48,5.52C179.56,43.93,182.04,44.15,183.69,42.76z"/>
<path fill="#696868" d="M167.03,56.74c1.66-1.39,1.87-3.86,0.49-5.52c-1.39-1.66-3.86-1.88-5.52-0.48
	c-1.66,1.39-1.87,3.86-0.48,5.52C162.9,57.91,165.38,58.13,167.03,56.74z"/>
<path fill="#696868" d="M42.76,183.69c1.39-1.66,1.17-4.13-0.48-5.52c-1.66-1.39-4.12-1.17-5.52,0.48
	c-1.39,1.66-1.17,4.13,0.49,5.52C38.9,185.56,41.38,185.34,42.76,183.69z"/>
<path fill="#696868" d="M56.75,167.02c1.39-1.65,1.17-4.12-0.49-5.51c-1.65-1.39-4.12-1.18-5.52,0.48
	c-1.39,1.66-1.17,4.13,0.49,5.52C52.89,168.89,55.36,168.68,56.75,167.02z"/>
<path fill="#696868" d="M171.8,29.9c1.39-1.65,1.18-4.12-0.48-5.52c-1.66-1.38-4.12-1.17-5.52,0.49c-1.39,1.66-1.18,4.12,0.48,5.52
	C167.94,31.78,170.41,31.56,171.8,29.9z"/>
<path fill="#696868" d="M157.82,46.56c1.39-1.66,1.17-4.12-0.48-5.52c-1.66-1.39-4.13-1.18-5.52,0.48
	c-1.39,1.65-1.17,4.13,0.48,5.52C153.96,48.44,156.43,48.22,157.82,46.56z"/>
<path fill="#696868" d="M57.49,193.16c1.08-1.88,0.44-4.27-1.43-5.36c-1.88-1.08-4.27-0.44-5.35,1.43
	c-1.08,1.87-0.44,4.27,1.44,5.35C54.01,195.68,56.41,195.03,57.49,193.16z"/>
<path fill="#696868" d="M68.36,174.32c1.08-1.87,0.44-4.26-1.44-5.34c-1.87-1.09-4.27-0.45-5.35,1.43
	c-1.08,1.88-0.44,4.27,1.44,5.35C64.89,176.84,67.29,176.2,68.36,174.32z"/>
<path fill="#696868" d="M157.86,19.31c1.08-1.87,0.44-4.27-1.43-5.35c-1.87-1.07-4.26-0.43-5.35,1.44
	c-1.08,1.87-0.44,4.27,1.43,5.35C154.38,21.82,156.78,21.18,157.86,19.31z"/>
<path fill="#696868" d="M146.99,38.14c1.08-1.88,0.44-4.27-1.43-5.35c-1.88-1.08-4.27-0.44-5.35,1.43
	c-1.08,1.87-0.44,4.27,1.44,5.35C143.51,40.66,145.9,40.02,146.99,38.14z"/>
<path fill="#696868" d="M73.63,199.94c0.74-2.04-0.31-4.28-2.34-5.03c-2.04-0.74-4.28,0.31-5.02,2.34
	c-0.74,2.03,0.31,4.29,2.35,5.02C70.64,203.02,72.89,201.96,73.63,199.94z"/>
<path fill="#696868" d="M81.07,179.5c0.74-2.03-0.31-4.28-2.34-5.01c-2.03-0.75-4.28,0.3-5.02,2.33c-0.74,2.04,0.31,4.28,2.35,5.02
	C78.08,182.58,80.34,181.53,81.07,179.5z"/>
<path fill="#696868" d="M142.29,11.3c0.74-2.03-0.31-4.28-2.34-5.03c-2.03-0.73-4.27,0.31-5.02,2.35c-0.73,2.03,0.31,4.28,2.34,5.02
	C139.3,14.38,141.55,13.33,142.29,11.3z"/>
<path fill="#696868" d="M134.85,31.73c0.74-2.04-0.31-4.28-2.34-5.02c-2.04-0.74-4.28,0.31-5.02,2.34
	c-0.74,2.03,0.31,4.28,2.34,5.02C131.86,34.81,134.11,33.77,134.85,31.73z"/>
<path fill="#696868" d="M90.71,203.81c0.38-2.14-1.05-4.16-3.18-4.54c-2.13-0.37-4.16,1.05-4.54,3.18
	c-0.37,2.13,1.05,4.17,3.18,4.54C88.3,207.36,90.33,205.93,90.71,203.81z"/>
<path fill="#696868" d="M94.48,182.38c0.38-2.13-1.04-4.16-3.18-4.53c-2.13-0.38-4.16,1.04-4.54,3.17
	c-0.38,2.13,1.05,4.16,3.18,4.54C92.08,185.94,94.11,184.51,94.48,182.38z"/>
<path fill="#696868" d="M125.56,6.11c0.38-2.13-1.04-4.16-3.18-4.54c-2.13-0.37-4.15,1.05-4.54,3.19c-0.37,2.13,1.04,4.16,3.18,4.54
	C123.16,9.66,125.19,8.24,125.56,6.11z"/>
<path fill="#696868" d="M121.79,27.53c0.38-2.14-1.05-4.16-3.18-4.54c-2.13-0.38-4.16,1.05-4.54,3.17
	c-0.38,2.13,1.05,4.16,3.18,4.54C119.38,31.08,121.41,29.66,121.79,27.53z"/>
<circle fill="#696868" cx="88.74" cy="16.15" r="3.92"/>
<circle fill="#696868" cx="119.83" cy="192.43" r="3.92"/>
<circle fill="#696868" cx="59.54" cy="26.78" r="3.92"/>
<path fill="#696868" d="M145.64,183.76c1.08,1.87,3.47,2.51,5.35,1.43c1.87-1.08,2.52-3.48,1.43-5.35s-3.48-2.51-5.35-1.43
	C145.2,179.49,144.56,181.88,145.64,183.76z"/>
<circle fill="#696868" cx="35.73" cy="46.76" r="3.92"/>
<path fill="#696868" d="M170.33,164.82c1.66,1.39,4.12,1.17,5.52-0.48c1.39-1.65,1.18-4.13-0.48-5.52s-4.13-1.17-5.52,0.48
	C168.46,160.96,168.67,163.43,170.33,164.82z"/>
<path fill="#696868" d="M18.85,77.36c2.04,0.74,4.28-0.31,5.02-2.34c0.74-2.03-0.31-4.28-2.34-5.02c-2.04-0.74-4.28,0.31-5.02,2.34
	C15.77,74.37,16.81,76.62,18.85,77.36z"/>
<path fill="#696868" d="M187.05,138.58c2.03,0.74,4.28-0.31,5.02-2.34c0.74-2.03-0.31-4.28-2.34-5.02
	c-2.04-0.74-4.28,0.31-5.02,2.34C183.97,135.59,185.02,137.84,187.05,138.58z"/>
<path fill="#696868" d="M14.79,108.2c2.17,0,3.92-1.75,3.92-3.91c0-2.16-1.75-3.92-3.91-3.92c-2.17,0-3.92,1.75-3.92,3.92
	C10.87,106.45,12.62,108.2,14.79,108.2z"/>
<path fill="#696868" d="M193.79,108.2c2.16,0,3.91-1.75,3.91-3.91s-1.75-3.92-3.92-3.92c-2.17,0-3.92,1.75-3.92,3.92
	C189.87,106.45,191.63,108.2,193.79,108.2z"/>
<path fill="#696868" d="M21.53,138.57c2.04-0.74,3.08-2.99,2.34-5.02c-0.74-2.03-2.99-3.08-5.02-2.34
	c-2.04,0.74-3.08,2.98-2.34,5.02C17.25,138.27,19.49,139.32,21.53,138.57z"/>
<path fill="#696868" d="M189.73,77.35c2.03-0.74,3.08-2.98,2.34-5.02c-0.74-2.03-2.99-3.08-5.02-2.34
	c-2.04,0.74-3.08,2.99-2.34,5.02C185.45,77.05,187.7,78.09,189.73,77.35z"/>
<path fill="#696868" d="M38.24,164.81c1.66-1.39,1.88-3.86,0.48-5.52c-1.39-1.66-3.86-1.87-5.52-0.48
	c-1.66,1.39-1.88,3.86-0.48,5.52C34.12,165.99,36.59,166.21,38.24,164.81z"/>
<path fill="#696868" d="M175.37,49.75c1.66-1.39,1.87-3.86,0.48-5.51c-1.39-1.66-3.86-1.88-5.52-0.48
	c-1.66,1.39-1.88,3.86-0.48,5.52C171.24,50.93,173.71,51.14,175.37,49.75z"/>
<path fill="#696868" d="M62.93,183.75c1.09-1.87,0.44-4.27-1.43-5.35c-1.87-1.08-4.27-0.44-5.35,1.43
	c-1.08,1.87-0.44,4.27,1.43,5.35C59.45,186.26,61.85,185.62,62.93,183.75z"/>
<path fill="#696868" d="M152.43,28.73c1.08-1.87,0.44-4.26-1.43-5.35c-1.87-1.08-4.27-0.44-5.35,1.43
	c-1.08,1.88-0.44,4.27,1.43,5.35C148.96,31.25,151.35,30.6,152.43,28.73z"/>
<circle fill="#696868" cx="88.75" cy="192.42" r="3.91"/>
<path fill="#696868" d="M123.68,16.82c0.38-2.13-1.05-4.16-3.17-4.53c-2.13-0.38-4.17,1.04-4.54,3.18
	c-0.38,2.13,1.05,4.16,3.18,4.54C121.28,20.37,123.31,18.95,123.68,16.82z"/>
<circle fill="#696868" cx="73.67" cy="20.19" r="3.92"/>
<circle fill="#696868" cx="134.89" cy="188.39" r="3.92"/>
<circle fill="#696868" cx="46.75" cy="35.73" r="3.92"/>
<circle fill="#696868" cx="161.81" cy="172.85" r="3.92"/>
<circle fill="#696868" cx="26.77" cy="59.54" r="3.92"/>
<circle fill="#696868" cx="181.79" cy="149.04" r="3.92"/>
<circle fill="#696868" cx="16.14" cy="88.75" r="3.92"/>
<path fill="#696868" d="M191.74,123.69c2.13,0.37,4.16-1.05,4.54-3.18c0.38-2.13-1.05-4.16-3.18-4.54
	c-2.13-0.38-4.16,1.05-4.54,3.18C188.19,121.28,189.61,123.31,191.74,123.69z"/>
<circle fill="#696868" cx="16.14" cy="119.83" r="3.92"/>
<circle fill="#696868" cx="192.42" cy="88.75" r="3.92"/>
<circle fill="#696868" cx="26.77" cy="149.04" r="3.92"/>
<circle fill="#696868" cx="181.79" cy="59.54" r="3.92"/>
<circle fill="#696868" cx="46.75" cy="172.85" r="3.92"/>
<path fill="#696868" d="M164.81,38.25c1.39-1.66,1.18-4.13-0.48-5.52c-1.65-1.39-4.13-1.17-5.52,0.48
	c-1.39,1.66-1.18,4.13,0.48,5.52C160.95,40.12,163.42,39.91,164.81,38.25z"/>
<circle fill="#696868" cx="73.67" cy="188.39" r="3.92"/>
<path fill="#696868" d="M138.57,21.53c0.74-2.03-0.31-4.28-2.34-5.02c-2.03-0.74-4.28,0.31-5.02,2.34
	c-0.74,2.03,0.31,4.28,2.34,5.02C135.59,24.61,137.83,23.56,138.57,21.53z"/>
</svg>
