<svg xmlns="http://www.w3.org/2000/svg" viewBox="0 0 205.84 205.84">
  <title>triple-circle-cc</title>
  <g id="_1" data-name="1">
    <path d="M101.74,14.79a2.55,2.55,0,1,0,2.54-2.55A2.54,2.54,0,0,0,101.74,14.79Z" transform="translate(-1.37 -1.37)" fill="#696868"/>
    <path d="M101.74,3.92a2.55,2.55,0,1,0,2.54-2.55A2.54,2.54,0,0,0,101.74,3.92Z" transform="translate(-1.37 -1.37)" fill="#696868"/>
    <path d="M101.74,25.66a2.55,2.55,0,1,0,2.54-2.54A2.55,2.55,0,0,0,101.74,25.66Z" transform="translate(-1.37 -1.37)" fill="#696868"/>
  </g>
  <g id="_2" data-name="2">
    <path d="M122.33,16.59a2.54,2.54,0,1,0-3,2.07A2.55,2.55,0,0,0,122.33,16.59Z" transform="translate(-1.37 -1.37)" fill="#696868"/>
    <path d="M124.22,5.88a2.54,2.54,0,1,0-3,2.07A2.56,2.56,0,0,0,124.22,5.88Z" transform="translate(-1.37 -1.37)" fill="#696868"/>
    <path d="M120.44,27.3a2.54,2.54,0,1,0-2.94,2.06A2.54,2.54,0,0,0,120.44,27.3Z" transform="translate(-1.37 -1.37)" fill="#696868"/>
  </g>
  <g id="_3" data-name="3">
    <path d="M137.29,21.06A2.55,2.55,0,1,0,134,22.58,2.56,2.56,0,0,0,137.29,21.06Z" transform="translate(-1.37 -1.37)" fill="#696868"/>
    <path d="M141,10.84a2.55,2.55,0,1,0-3.27,1.52A2.54,2.54,0,0,0,141,10.84Z" transform="translate(-1.37 -1.37)" fill="#696868"/>
    <path d="M133.57,31.27a2.55,2.55,0,1,0-3.26,1.52A2.54,2.54,0,0,0,133.57,31.27Z" transform="translate(-1.37 -1.37)" fill="#696868"/>
  </g>
  <g id="_4" data-name="4">
    <path d="M151.24,28.05a2.54,2.54,0,1,0-3.48.93A2.56,2.56,0,0,0,151.24,28.05Z" transform="translate(-1.37 -1.37)" fill="#696868"/>
    <path d="M156.67,18.64a2.54,2.54,0,1,0-3.47.93A2.54,2.54,0,0,0,156.67,18.64Z" transform="translate(-1.37 -1.37)" fill="#696868"/>
    <path d="M145.8,37.47a2.55,2.55,0,1,0-3.47.93A2.54,2.54,0,0,0,145.8,37.47Z" transform="translate(-1.37 -1.37)" fill="#696868"/>
  </g>
  <g id="_5" data-name="5">
    <path d="M163.76,37.36a2.54,2.54,0,1,0-3.58.32A2.53,2.53,0,0,0,163.76,37.36Z" transform="translate(-1.37 -1.37)" fill="#696868"/>
    <path d="M170.75,29a2.55,2.55,0,1,0-3.58.31A2.54,2.54,0,0,0,170.75,29Z" transform="translate(-1.37 -1.37)" fill="#696868"/>
    <path d="M156.78,45.69a2.55,2.55,0,1,0-3.59.32A2.54,2.54,0,0,0,156.78,45.69Z" transform="translate(-1.37 -1.37)" fill="#696868"/>
  </g>
  <g id="_6" data-name="6">
    <path d="M174.48,48.71a2.54,2.54,0,1,0-3.59-.31A2.55,2.55,0,0,0,174.48,48.71Z" transform="translate(-1.37 -1.37)" fill="#696868"/>
    <path d="M182.81,41.72a2.54,2.54,0,1,0-3.59-.31A2.54,2.54,0,0,0,182.81,41.72Z" transform="translate(-1.37 -1.37)" fill="#696868"/>
    <path d="M166.15,55.7a2.54,2.54,0,1,0-3.58-.32A2.55,2.55,0,0,0,166.15,55.7Z" transform="translate(-1.37 -1.37)" fill="#696868"/>
  </g>
  <g id="_7" data-name="7">
    <path d="M183.07,61.74a2.55,2.55,0,1,0-3.48-.93A2.55,2.55,0,0,0,183.07,61.74Z" transform="translate(-1.37 -1.37)" fill="#696868"/>
    <path d="M192.48,56.31a2.54,2.54,0,1,0-3.48-.93A2.54,2.54,0,0,0,192.48,56.31Z" transform="translate(-1.37 -1.37)" fill="#696868"/>
    <path d="M173.65,67.18a2.55,2.55,0,1,0-3.48-.93A2.54,2.54,0,0,0,173.65,67.18Z" transform="translate(-1.37 -1.37)" fill="#696868"/>
  </g>
  <g id="_8" data-name="8">
    <path d="M189.26,76.07A2.54,2.54,0,1,0,186,74.55,2.54,2.54,0,0,0,189.26,76.07Z" transform="translate(-1.37 -1.37)" fill="#696868"/>
    <path d="M199.47,72.35a2.54,2.54,0,1,0-3.26-1.52A2.54,2.54,0,0,0,199.47,72.35Z" transform="translate(-1.37 -1.37)" fill="#696868"/>
    <path d="M179,79.79a2.55,2.55,0,1,0-3.26-1.52A2.54,2.54,0,0,0,179,79.79Z" transform="translate(-1.37 -1.37)" fill="#696868"/>
  </g>
  <g id="_9" data-name="9">
    <path d="M192.87,91.25a2.54,2.54,0,1,0-3-2.06A2.53,2.53,0,0,0,192.87,91.25Z" transform="translate(-1.37 -1.37)" fill="#696868"/>
    <path d="M203.57,89.37a2.55,2.55,0,1,0-2.95-2.07A2.55,2.55,0,0,0,203.57,89.37Z" transform="translate(-1.37 -1.37)" fill="#696868"/>
    <path d="M182.16,93.14a2.54,2.54,0,1,0-2.95-2.06A2.54,2.54,0,0,0,182.16,93.14Z" transform="translate(-1.37 -1.37)" fill="#696868"/>
  </g>
  <g id="_10" data-name="10">
    <path d="M193.78,106.83a2.55,2.55,0,1,0-2.54-2.54A2.54,2.54,0,0,0,193.78,106.83Z" transform="translate(-1.37 -1.37)" fill="#696868"/>
    <path d="M204.66,106.83a2.55,2.55,0,1,0-2.55-2.54A2.54,2.54,0,0,0,204.66,106.83Z" transform="translate(-1.37 -1.37)" fill="#696868"/>
    <path d="M182.91,106.83a2.55,2.55,0,1,0-2.54-2.54A2.54,2.54,0,0,0,182.91,106.83Z" transform="translate(-1.37 -1.37)" fill="#696868"/>
  </g>
  <g id="_11" data-name="11">
    <path d="M192,122.34a2.55,2.55,0,1,0-2.06-3A2.54,2.54,0,0,0,192,122.34Z" transform="translate(-1.37 -1.37)" fill="#696868"/>
    <path d="M202.69,124.23a2.55,2.55,0,1,0-2.07-3A2.55,2.55,0,0,0,202.69,124.23Z" transform="translate(-1.37 -1.37)" fill="#696868"/>
    <path d="M181.28,120.45a2.54,2.54,0,1,0-2.07-3A2.54,2.54,0,0,0,181.28,120.45Z" transform="translate(-1.37 -1.37)" fill="#696868"/>
  </g>
  <g id="_12" data-name="12">
    <path d="M187.52,137.29A2.54,2.54,0,1,0,186,134,2.54,2.54,0,0,0,187.52,137.29Z" transform="translate(-1.37 -1.37)" fill="#696868"/>
    <path d="M197.73,141a2.54,2.54,0,1,0-1.52-3.26A2.54,2.54,0,0,0,197.73,141Z" transform="translate(-1.37 -1.37)" fill="#696868"/>
    <path d="M177.3,133.57a2.54,2.54,0,1,0-1.52-3.26A2.54,2.54,0,0,0,177.3,133.57Z" transform="translate(-1.37 -1.37)" fill="#696868"/>
  </g>
  <g id="_13" data-name="13">
    <path d="M180.52,151.24a2.55,2.55,0,1,0-.93-3.47A2.54,2.54,0,0,0,180.52,151.24Z" transform="translate(-1.37 -1.37)" fill="#696868"/>
    <path d="M189.94,156.68a2.54,2.54,0,1,0-.94-3.48A2.54,2.54,0,0,0,189.94,156.68Z" transform="translate(-1.37 -1.37)" fill="#696868"/>
    <path d="M171.1,145.81a2.55,2.55,0,1,0-.93-3.48A2.56,2.56,0,0,0,171.1,145.81Z" transform="translate(-1.37 -1.37)" fill="#696868"/>
  </g>
  <g id="_14" data-name="14">
    <path d="M171.21,163.77a2.54,2.54,0,1,0-.32-3.59A2.54,2.54,0,0,0,171.21,163.77Z" transform="translate(-1.37 -1.37)" fill="#696868"/>
    <path d="M179.54,170.76a2.54,2.54,0,1,0-.32-3.59A2.54,2.54,0,0,0,179.54,170.76Z" transform="translate(-1.37 -1.37)" fill="#696868"/>
    <path d="M162.88,156.78a2.54,2.54,0,1,0-.31-3.59A2.56,2.56,0,0,0,162.88,156.78Z" transform="translate(-1.37 -1.37)" fill="#696868"/>
  </g>
  <g id="_15" data-name="15">
    <path d="M159.86,174.49a2.55,2.55,0,1,0,.32-3.59A2.56,2.56,0,0,0,159.86,174.49Z" transform="translate(-1.37 -1.37)" fill="#696868"/>
    <path d="M166.85,182.81a2.54,2.54,0,1,0,.31-3.58A2.55,2.55,0,0,0,166.85,182.81Z" transform="translate(-1.37 -1.37)" fill="#696868"/>
    <path d="M152.87,166.16a2.55,2.55,0,1,0,.32-3.59A2.55,2.55,0,0,0,152.87,166.16Z" transform="translate(-1.37 -1.37)" fill="#696868"/>
  </g>
  <g id="_16" data-name="16">
    <path d="M146.83,183.07a2.54,2.54,0,1,0,.93-3.48A2.54,2.54,0,0,0,146.83,183.07Z" transform="translate(-1.37 -1.37)" fill="#696868"/>
    <path d="M152.27,192.49a2.54,2.54,0,1,0,.93-3.48A2.54,2.54,0,0,0,152.27,192.49Z" transform="translate(-1.37 -1.37)" fill="#696868"/>
    <path d="M141.39,173.66a2.55,2.55,0,1,0,.93-3.48A2.56,2.56,0,0,0,141.39,173.66Z" transform="translate(-1.37 -1.37)" fill="#696868"/>
  </g>
  <g id="_17" data-name="17">
    <path d="M132.5,189.26A2.55,2.55,0,1,0,134,186,2.54,2.54,0,0,0,132.5,189.26Z" transform="translate(-1.37 -1.37)" fill="#696868"/>
    <path d="M136.22,199.48a2.55,2.55,0,1,0,1.52-3.26A2.54,2.54,0,0,0,136.22,199.48Z" transform="translate(-1.37 -1.37)" fill="#696868"/>
    <path d="M128.78,179.05a2.55,2.55,0,1,0,1.53-3.27A2.55,2.55,0,0,0,128.78,179.05Z" transform="translate(-1.37 -1.37)" fill="#696868"/>
  </g>
  <g id="_18" data-name="18">
    <path d="M117.32,192.87a2.54,2.54,0,1,0,2.06-3A2.54,2.54,0,0,0,117.32,192.87Z" transform="translate(-1.37 -1.37)" fill="#696868"/>
    <path d="M119.21,203.58a2.54,2.54,0,1,0,2.06-3A2.53,2.53,0,0,0,119.21,203.58Z" transform="translate(-1.37 -1.37)" fill="#696868"/>
    <path d="M115.43,182.16a2.54,2.54,0,1,0,2.06-2.94A2.54,2.54,0,0,0,115.43,182.16Z" transform="translate(-1.37 -1.37)" fill="#696868"/>
  </g>
  <g id="_19" data-name="19">
    <path d="M101.74,193.79a2.55,2.55,0,1,0,2.54-2.55A2.54,2.54,0,0,0,101.74,193.79Z" transform="translate(-1.37 -1.37)" fill="#696868"/>
    <path d="M101.74,204.66a2.55,2.55,0,1,0,2.54-2.55A2.55,2.55,0,0,0,101.74,204.66Z" transform="translate(-1.37 -1.37)" fill="#696868"/>
    <path d="M101.74,182.92a2.55,2.55,0,1,0,2.54-2.55A2.54,2.54,0,0,0,101.74,182.92Z" transform="translate(-1.37 -1.37)" fill="#696868"/>
  </g>
  <g id="_20" data-name="20">
    <path d="M91.25,192.87a2.54,2.54,0,1,0-3,2.07A2.55,2.55,0,0,0,91.25,192.87Z" transform="translate(-1.37 -1.37)" fill="#696868"/>
    <path d="M89.36,203.58a2.54,2.54,0,1,0-3,2.06A2.54,2.54,0,0,0,89.36,203.58Z" transform="translate(-1.37 -1.37)" fill="#696868"/>
    <path d="M93.14,182.16a2.55,2.55,0,1,0-3,2.07A2.55,2.55,0,0,0,93.14,182.16Z" transform="translate(-1.37 -1.37)" fill="#696868"/>
  </g>
  <g id="_21" data-name="21">
    <path d="M76.07,189.26a2.55,2.55,0,1,0-3.27,1.52A2.54,2.54,0,0,0,76.07,189.26Z" transform="translate(-1.37 -1.37)" fill="#696868"/>
    <path d="M72.35,199.48A2.55,2.55,0,1,0,69.08,201,2.54,2.54,0,0,0,72.35,199.48Z" transform="translate(-1.37 -1.37)" fill="#696868"/>
    <path d="M79.78,179a2.54,2.54,0,1,0-3.26,1.52A2.54,2.54,0,0,0,79.78,179Z" transform="translate(-1.37 -1.37)" fill="#696868"/>
  </g>
  <g id="_22" data-name="22">
    <path d="M61.74,183.07a2.55,2.55,0,1,0-3.48.93A2.56,2.56,0,0,0,61.74,183.07Z" transform="translate(-1.37 -1.37)" fill="#696868"/>
    <path d="M56.3,192.49a2.55,2.55,0,1,0-3.47.93A2.54,2.54,0,0,0,56.3,192.49Z" transform="translate(-1.37 -1.37)" fill="#696868"/>
    <path d="M67.18,173.65a2.54,2.54,0,1,0-3.48.93A2.54,2.54,0,0,0,67.18,173.65Z" transform="translate(-1.37 -1.37)" fill="#696868"/>
  </g>
  <g id="_23" data-name="23">
    <path d="M48.7,174.49a2.55,2.55,0,1,0-3.58.31A2.54,2.54,0,0,0,48.7,174.49Z" transform="translate(-1.37 -1.37)" fill="#696868"/>
    <path d="M41.72,182.81a2.54,2.54,0,1,0-3.59.32A2.54,2.54,0,0,0,41.72,182.81Z" transform="translate(-1.37 -1.37)" fill="#696868"/>
    <path d="M55.69,166.16a2.55,2.55,0,1,0-3.58.31A2.54,2.54,0,0,0,55.69,166.16Z" transform="translate(-1.37 -1.37)" fill="#696868"/>
  </g>
  <g id="_24" data-name="24">
    <path d="M37.36,163.77a2.54,2.54,0,1,0-3.59-.32A2.54,2.54,0,0,0,37.36,163.77Z" transform="translate(-1.37 -1.37)" fill="#696868"/>
    <path d="M29,170.76a2.54,2.54,0,1,0-3.59-.32A2.54,2.54,0,0,0,29,170.76Z" transform="translate(-1.37 -1.37)" fill="#696868"/>
    <path d="M45.69,156.78a2.54,2.54,0,1,0-3.59-.32A2.54,2.54,0,0,0,45.69,156.78Z" transform="translate(-1.37 -1.37)" fill="#696868"/>
  </g>
  <g id="_25" data-name="25">
    <path d="M28.05,151.24a2.55,2.55,0,1,0-3.48-.93A2.54,2.54,0,0,0,28.05,151.24Z" transform="translate(-1.37 -1.37)" fill="#696868"/>
    <path d="M18.63,156.68a2.54,2.54,0,1,0-3.48-.93A2.54,2.54,0,0,0,18.63,156.68Z" transform="translate(-1.37 -1.37)" fill="#696868"/>
    <path d="M37.47,145.81a2.55,2.55,0,1,0-3.48-.94A2.56,2.56,0,0,0,37.47,145.81Z" transform="translate(-1.37 -1.37)" fill="#696868"/>
  </g>
  <g id="_26" data-name="26">
    <path d="M21.05,137.29a2.54,2.54,0,1,0-3.26-1.52A2.54,2.54,0,0,0,21.05,137.29Z" transform="translate(-1.37 -1.37)" fill="#696868"/>
    <path d="M10.84,141a2.55,2.55,0,1,0-3.27-1.52A2.54,2.54,0,0,0,10.84,141Z" transform="translate(-1.37 -1.37)" fill="#696868"/>
    <path d="M31.27,133.57A2.54,2.54,0,1,0,28,132.05,2.54,2.54,0,0,0,31.27,133.57Z" transform="translate(-1.37 -1.37)" fill="#696868"/>
  </g>
  <g id="_27" data-name="27">
    <path d="M16.59,122.34a2.55,2.55,0,1,0-2.95-2.07A2.56,2.56,0,0,0,16.59,122.34Z" transform="translate(-1.37 -1.37)" fill="#696868"/>
    <path d="M5.88,124.23a2.55,2.55,0,1,0-2.95-2.07A2.55,2.55,0,0,0,5.88,124.23Z" transform="translate(-1.37 -1.37)" fill="#696868"/>
    <path d="M27.3,120.45a2.55,2.55,0,1,0-2.95-2.07A2.56,2.56,0,0,0,27.3,120.45Z" transform="translate(-1.37 -1.37)" fill="#696868"/>
  </g>
  <g id="_28" data-name="28">
    <path d="M14.78,106.83a2.55,2.55,0,1,0-2.54-2.54A2.54,2.54,0,0,0,14.78,106.83Z" transform="translate(-1.37 -1.37)" fill="#696868"/>
    <path d="M3.91,106.83a2.55,2.55,0,1,0-2.54-2.54A2.54,2.54,0,0,0,3.91,106.83Z" transform="translate(-1.37 -1.37)" fill="#696868"/>
    <path d="M25.66,106.83a2.55,2.55,0,1,0-2.55-2.54A2.54,2.54,0,0,0,25.66,106.83Z" transform="translate(-1.37 -1.37)" fill="#696868"/>
  </g>
  <g id="_29" data-name="29">
    <path d="M15.7,91.25a2.54,2.54,0,1,0-2.06-2.94A2.54,2.54,0,0,0,15.7,91.25Z" transform="translate(-1.37 -1.37)" fill="#696868"/>
    <path d="M5,89.37a2.55,2.55,0,1,0-2.06-3A2.54,2.54,0,0,0,5,89.37Z" transform="translate(-1.37 -1.37)" fill="#696868"/>
    <path d="M26.41,93.14a2.54,2.54,0,1,0-2.06-3A2.54,2.54,0,0,0,26.41,93.14Z" transform="translate(-1.37 -1.37)" fill="#696868"/>
  </g>
  <g id="_30" data-name="30">
    <path d="M19.31,76.07a2.54,2.54,0,1,0-1.52-3.26A2.54,2.54,0,0,0,19.31,76.07Z" transform="translate(-1.37 -1.37)" fill="#696868"/>
    <path d="M9.09,72.35a2.55,2.55,0,1,0-1.52-3.26A2.55,2.55,0,0,0,9.09,72.35Z" transform="translate(-1.37 -1.37)" fill="#696868"/>
    <path d="M29.53,79.79A2.54,2.54,0,1,0,28,76.53,2.54,2.54,0,0,0,29.53,79.79Z" transform="translate(-1.37 -1.37)" fill="#696868"/>
  </g>
  <g id="_31" data-name="31">
    <path d="M25.5,61.74a2.55,2.55,0,1,0-.93-3.47A2.54,2.54,0,0,0,25.5,61.74Z" transform="translate(-1.37 -1.37)" fill="#696868"/>
    <path d="M16.09,56.31a2.54,2.54,0,1,0-.94-3.48A2.55,2.55,0,0,0,16.09,56.31Z" transform="translate(-1.37 -1.37)" fill="#696868"/>
    <path d="M34.92,67.18A2.55,2.55,0,1,0,34,63.7,2.55,2.55,0,0,0,34.92,67.18Z" transform="translate(-1.37 -1.37)" fill="#696868"/>
  </g>
  <g id="_32" data-name="32">
    <path d="M34.09,48.71a2.54,2.54,0,1,0-.32-3.59A2.55,2.55,0,0,0,34.09,48.71Z" transform="translate(-1.37 -1.37)" fill="#696868"/>
    <path d="M25.76,41.72a2.54,2.54,0,1,0-.32-3.59A2.55,2.55,0,0,0,25.76,41.72Z" transform="translate(-1.37 -1.37)" fill="#696868"/>
    <path d="M42.42,55.7a2.54,2.54,0,1,0-.32-3.59A2.55,2.55,0,0,0,42.42,55.7Z" transform="translate(-1.37 -1.37)" fill="#696868"/>
  </g>
  <g id="_33" data-name="33">
    <path d="M44.8,37.36a2.54,2.54,0,1,0,.32-3.58A2.55,2.55,0,0,0,44.8,37.36Z" transform="translate(-1.37 -1.37)" fill="#696868"/>
    <path d="M37.82,29a2.55,2.55,0,1,0,.31-3.59A2.55,2.55,0,0,0,37.82,29Z" transform="translate(-1.37 -1.37)" fill="#696868"/>
    <path d="M51.79,45.7a2.55,2.55,0,1,0,3.9-3.28,2.55,2.55,0,0,0-3.9,3.28Z" transform="translate(-1.37 -1.37)" fill="#696868"/>
  </g>
  <g id="_34" data-name="34">
    <path d="M57.33,28.05a2.54,2.54,0,1,0,.93-3.48A2.54,2.54,0,0,0,57.33,28.05Z" transform="translate(-1.37 -1.37)" fill="#696868"/>
    <path d="M51.89,18.64a2.55,2.55,0,1,0,.93-3.48A2.56,2.56,0,0,0,51.89,18.64Z" transform="translate(-1.37 -1.37)" fill="#696868"/>
    <path d="M62.77,37.47a2.55,2.55,0,0,0,4.41-2.55,2.55,2.55,0,1,0-4.41,2.55Z" transform="translate(-1.37 -1.37)" fill="#696868"/>
  </g>
  <g id="_35" data-name="35">
    <path d="M71.28,21.06a2.55,2.55,0,1,0,1.52-3.27A2.54,2.54,0,0,0,71.28,21.06Z" transform="translate(-1.37 -1.37)" fill="#696868"/>
    <path d="M67.56,10.84a2.55,2.55,0,1,0,1.52-3.26A2.54,2.54,0,0,0,67.56,10.84Z" transform="translate(-1.37 -1.37)" fill="#696868"/>
    <path d="M75,31.28A2.55,2.55,0,1,0,76.52,28,2.54,2.54,0,0,0,75,31.28Z" transform="translate(-1.37 -1.37)" fill="#696868"/>
  </g>
  <g id="_36" data-name="36">
    <path d="M86.24,16.59a2.54,2.54,0,1,0,2.06-2.95A2.54,2.54,0,0,0,86.24,16.59Z" transform="translate(-1.37 -1.37)" fill="#696868"/>
    <path d="M84.35,5.88a2.54,2.54,0,1,0,2.06-2.95A2.54,2.54,0,0,0,84.35,5.88Z" transform="translate(-1.37 -1.37)" fill="#696868"/>
    <path d="M88.12,27.3a2.55,2.55,0,1,0,2.07-2.95A2.55,2.55,0,0,0,88.12,27.3Z" transform="translate(-1.37 -1.37)" fill="#696868"/>
  </g>
</svg>
