<?xml version="1.0" encoding="utf-8"?>
<!-- Generator: Adobe Illustrator 16.0.0, SVG Export Plug-In . SVG Version: 6.00 Build 0)  -->
<!DOCTYPE svg PUBLIC "-//W3C//DTD SVG 1.1//EN" "http://www.w3.org/Graphics/SVG/1.1/DTD/svg11.dtd">
<svg version="1.1" id="w-nav-logo" xmlns="http://www.w3.org/2000/svg" xmlns:xlink="http://www.w3.org/1999/xlink" x="0px" y="0px"
	 width="55.44px" height="55.44px" viewBox="0 0 55.44 55.44" enable-background="new 0 0 55.44 55.44" xml:space="preserve">
<g>
	<path fill="#1DABC1" d="M11.13,25.88c0.56-0.92,0.85-2.01,0.86-3.23v-2.48c0-0.58,0.03-1.17,0.09-1.76
		c0.06-0.57,0.18-1.08,0.38-1.53c0.19-0.43,0.47-0.79,0.84-1.07c0.36-0.27,0.86-0.42,1.49-0.43l0.36-0.01l-0.42-2.28l-0.26,0.01
		c-0.7,0.02-1.34,0.13-1.9,0.34c-0.56,0.2-1.06,0.49-1.49,0.83c-0.43,0.35-0.8,0.76-1.1,1.22c-0.3,0.46-0.55,0.95-0.74,1.47
		c-0.19,0.51-0.33,1.05-0.42,1.6c-0.09,0.54-0.14,1.09-0.14,1.62v2.48c0,1.31-0.3,2.27-0.9,2.83c-0.6,0.57-1.56,0.86-2.84,0.86H4.62
		v2.72l0.3,0c1.28,0.01,2.24,0.31,2.84,0.88c0.6,0.57,0.9,1.52,0.9,2.82v2.46c0,0.53,0.05,1.07,0.15,1.62
		c0.1,0.55,0.25,1.09,0.46,1.6c0.21,0.52,0.47,1.01,0.77,1.47c0.31,0.46,0.69,0.87,1.12,1.22c0.43,0.35,0.93,0.63,1.47,0.83
		c0.54,0.2,1.16,0.32,1.82,0.34l0.26,0.01l0.42-2.28l-0.35-0.01c-0.53-0.02-0.97-0.16-1.31-0.43c-0.36-0.28-0.65-0.64-0.86-1.08
		c-0.22-0.45-0.38-0.97-0.47-1.53c-0.09-0.58-0.14-1.17-0.14-1.75v-2.47c-0.01-1.21-0.3-2.29-0.86-3.21
		c-0.46-0.76-1.14-1.38-2.02-1.83C9.99,27.25,10.67,26.64,11.13,25.88z"/>
	<polygon fill="#1DABC1" points="32.21,31.06 32.09,31.81 31.95,31.03 29.02,19.7 26.51,19.7 23.56,31.05 23.48,31.48 23.42,31.05 
		21.27,19.7 17.83,19.7 21.81,37.74 24.78,37.74 27.63,26.82 27.75,26.11 27.87,26.85 30.75,37.74 33.72,37.74 37.7,19.7 
		34.26,19.7 	"/>
	<path fill="#1DABC1" d="M50.55,26.34c-1.28,0-2.23-0.29-2.84-0.86c-0.6-0.56-0.91-1.52-0.91-2.83v-2.48c0-0.53-0.04-1.07-0.13-1.62
		c-0.09-0.55-0.23-1.08-0.42-1.6c-0.19-0.52-0.44-1.01-0.74-1.47c-0.3-0.46-0.67-0.87-1.1-1.22c-0.43-0.35-0.94-0.63-1.49-0.83
		c-0.56-0.21-1.2-0.32-1.9-0.34l-0.26-0.01l-0.4,2.28l0.35,0.01c0.63,0.02,1.13,0.16,1.48,0.43c0.37,0.28,0.64,0.64,0.83,1.07
		c0.2,0.45,0.32,0.97,0.38,1.54c0.06,0.59,0.09,1.18,0.09,1.76v2.48c0,1.22,0.28,2.3,0.85,3.23c0.46,0.76,1.14,1.38,2.02,1.84
		c-0.88,0.46-1.56,1.07-2.02,1.83c-0.56,0.92-0.85,2-0.85,3.21v2.46c0,0.58-0.05,1.17-0.15,1.75c-0.1,0.56-0.26,1.08-0.48,1.53
		c-0.22,0.44-0.51,0.8-0.87,1.08c-0.35,0.27-0.78,0.41-1.31,0.43l-0.35,0.01l0.42,2.28l0.26-0.01c1-0.02,1.88-0.25,2.61-0.7
		c0.72-0.44,1.33-1.01,1.8-1.69c0.47-0.68,0.82-1.44,1.04-2.26c0.22-0.82,0.33-1.63,0.33-2.43v-2.46c0-1.3,0.31-2.25,0.91-2.82
		c0.61-0.57,1.56-0.87,2.84-0.88l0.3,0v-2.72H50.55z"/>
</g>
</svg>
