<?xml version="1.0" encoding="utf-8"?>
<!-- Generator: Adobe Illustrator 16.0.0, SVG Export Plug-In . SVG Version: 6.00 Build 0)  -->
<!DOCTYPE svg PUBLIC "-//W3C//DTD SVG 1.1//EN" "http://www.w3.org/Graphics/SVG/1.1/DTD/svg11.dtd">
<svg version="1.1" id="wp-logo" xmlns="http://www.w3.org/2000/svg" xmlns:xlink="http://www.w3.org/1999/xlink" x="0px" y="0px"
	 width="72px" height="34.25px" viewBox="0 0 72 34.25" enable-background="new 0 0 72 34.25" xml:space="preserve">
<g>
	<path fill="#1DABC1" d="M7.45,14.63c0.64-1.06,0.97-2.3,0.98-3.69V8.11c0-0.66,0.03-1.34,0.1-2.02c0.06-0.65,0.21-1.24,0.43-1.75
		c0.21-0.49,0.53-0.9,0.96-1.22c0.41-0.31,0.99-0.48,1.71-0.5l0.41-0.01L11.55,0l-0.3,0.01c-0.8,0.02-1.53,0.15-2.17,0.39
		C8.45,0.63,7.87,0.95,7.38,1.35c-0.49,0.4-0.92,0.87-1.26,1.4C5.77,3.27,5.49,3.83,5.27,4.43C5.05,5.02,4.89,5.63,4.79,6.26
		C4.69,6.88,4.63,7.5,4.63,8.11v2.83c0,1.5-0.35,2.59-1.03,3.24c-0.69,0.65-1.79,0.98-3.25,0.98H0v3.11l0.35,0
		c1.47,0.01,2.56,0.35,3.25,1c0.69,0.65,1.03,1.74,1.03,3.23v2.82c0,0.61,0.06,1.23,0.17,1.86C4.92,27.8,5.1,28.42,5.33,29
		c0.24,0.6,0.54,1.16,0.89,1.68c0.36,0.53,0.79,0.99,1.28,1.39c0.49,0.4,1.06,0.72,1.68,0.96c0.62,0.23,1.32,0.36,2.08,0.39
		l0.3,0.01l0.48-2.61l-0.4-0.01c-0.61-0.02-1.11-0.19-1.5-0.49c-0.41-0.32-0.74-0.74-0.99-1.24c-0.26-0.52-0.44-1.1-0.54-1.75
		c-0.11-0.66-0.16-1.33-0.16-2V22.5c-0.01-1.38-0.34-2.61-0.98-3.67c-0.53-0.87-1.31-1.57-2.31-2.09
		C6.14,16.21,6.92,15.5,7.45,14.63z"/>
	<polygon fill="#1DABC1" points="31.08,20.38 30.95,21.16 30.81,20.35 27.77,8.58 25.16,8.58 22.1,20.37 22.02,20.82 21.95,20.37 
		19.72,8.58 16.15,8.58 20.28,27.32 23.36,27.32 26.32,15.98 26.45,15.24 26.58,16.01 29.57,27.32 32.65,27.32 36.78,8.58 
		33.21,8.58 	"/>
	<path fill="#1DABC1" d="M53.53,10.98c-0.63-0.85-1.42-1.52-2.36-2c-0.93-0.48-2.02-0.72-3.22-0.72c-1.17,0-2.21,0.21-3.1,0.62
		c-0.65,0.3-1.23,0.7-1.74,1.19l-0.11-1.49H39.5v25.66h3.78v-8.19c0.5,0.42,1.06,0.77,1.67,1.03c0.88,0.37,1.9,0.56,3.05,0.56
		c1.19,0,2.26-0.25,3.18-0.74c0.93-0.49,1.72-1.17,2.34-2.04c0.62-0.85,1.1-1.87,1.42-3.02c0.32-1.14,0.48-2.39,0.48-3.7V17.8
		c0-1.37-0.16-2.65-0.48-3.8C54.63,12.84,54.15,11.82,53.53,10.98z M51.65,18.15c0,0.84-0.1,1.66-0.28,2.43
		c-0.19,0.76-0.47,1.43-0.84,2.01c-0.37,0.56-0.84,1.01-1.42,1.35c-0.56,0.33-1.25,0.49-2.04,0.49c-0.95,0-1.73-0.21-2.34-0.61
		c-0.59-0.4-1.08-0.92-1.45-1.55v-8.5c0.37-0.64,0.86-1.17,1.46-1.58c0.61-0.42,1.38-0.63,2.29-0.63c0.8,0,1.5,0.16,2.06,0.49
		c0.57,0.33,1.05,0.77,1.42,1.33c0.38,0.57,0.67,1.24,0.85,1.99c0.18,0.76,0.28,1.58,0.28,2.42V18.15z"/>
	<path fill="#1DABC1" d="M71.65,15.16c-1.46,0-2.55-0.33-3.24-0.98c-0.69-0.64-1.04-1.73-1.04-3.24V8.11c0-0.6-0.05-1.23-0.16-1.85
		c-0.1-0.62-0.26-1.24-0.48-1.83c-0.22-0.59-0.5-1.16-0.84-1.68c-0.35-0.53-0.77-1-1.26-1.4c-0.49-0.4-1.07-0.72-1.71-0.96
		c-0.64-0.23-1.37-0.36-2.17-0.39L60.45,0l-0.45,2.61l0.4,0.01c0.72,0.02,1.29,0.19,1.7,0.49c0.42,0.32,0.74,0.73,0.95,1.22
		c0.22,0.51,0.37,1.1,0.44,1.76c0.07,0.67,0.1,1.35,0.1,2.01v2.83c0,1.39,0.33,2.63,0.97,3.69c0.53,0.87,1.31,1.58,2.31,2.11
		c-1,0.52-1.78,1.22-2.31,2.09c-0.64,1.06-0.97,2.29-0.97,3.67v2.82c0,0.67-0.06,1.34-0.17,2c-0.11,0.65-0.3,1.24-0.55,1.76
		c-0.25,0.5-0.58,0.92-0.99,1.24c-0.4,0.31-0.89,0.47-1.5,0.49l-0.41,0.01l0.48,2.61l0.29-0.01c1.15-0.03,2.15-0.29,2.99-0.8
		c0.83-0.5,1.52-1.15,2.06-1.93c0.54-0.77,0.94-1.64,1.19-2.58c0.25-0.93,0.38-1.87,0.38-2.78V22.5c0-1.49,0.35-2.58,1.04-3.23
		c0.7-0.66,1.79-0.99,3.24-1l0.35,0v-3.11H71.65z"/>
</g>
</svg>
