<?xml version="1.0" encoding="utf-8"?>
<!-- Generator: Adobe Illustrator 16.0.0, SVG Export Plug-In . SVG Version: 6.00 Build 0)  -->
<!DOCTYPE svg PUBLIC "-//W3C//DTD SVG 1.1//EN" "http://www.w3.org/Graphics/SVG/1.1/DTD/svg11.dtd">
<svg version="1.1" id="wp-logo" xmlns="http://www.w3.org/2000/svg" xmlns:xlink="http://www.w3.org/1999/xlink" x="0px" y="0px"
	width="55.44px" height="55.44px" viewBox="0 0 55.44 55.44" enable-background="new 0 0 55.44 55.44" xml:space="preserve">
	<g>
		<path fill="#1DABC1" d="M5.82,26.11c0.49-0.81,0.74-1.76,0.75-2.83V21.1c0-0.51,0.03-1.03,0.08-1.55c0.05-0.49,0.16-0.95,0.33-1.34
			c0.16-0.38,0.41-0.69,0.74-0.93c0.31-0.24,0.75-0.37,1.31-0.39l0.31-0.01l-0.37-2l-0.23,0.01C8.13,14.9,7.57,15,7.08,15.19
			c-0.49,0.18-0.93,0.42-1.31,0.73c-0.38,0.31-0.71,0.67-0.97,1.07c-0.26,0.41-0.48,0.83-0.65,1.29c-0.17,0.44-0.29,0.92-0.37,1.4
			c-0.08,0.48-0.12,0.95-0.12,1.42v2.18c0,1.14-0.26,1.99-0.79,2.48c-0.53,0.51-1.37,0.75-2.5,0.75H0.11v2.39l0.27,0
			c1.13,0.01,1.97,0.27,2.5,0.77c0.53,0.51,0.79,1.34,0.79,2.48v2.16c0,0.47,0.04,0.94,0.13,1.43c0.09,0.47,0.22,0.95,0.4,1.4
			c0.18,0.46,0.41,0.89,0.68,1.29c0.27,0.41,0.6,0.76,0.98,1.07c0.38,0.31,0.81,0.55,1.29,0.73c0.48,0.18,1.01,0.28,1.6,0.3
			l0.23,0.01l0.37-2l-0.31-0.01c-0.47-0.02-0.85-0.15-1.15-0.38c-0.31-0.24-0.56-0.56-0.76-0.95c-0.2-0.39-0.33-0.85-0.42-1.33
			c-0.08-0.51-0.12-1.02-0.12-1.54v-2.16c-0.01-1.05-0.26-2-0.75-2.82c-0.41-0.67-1-1.2-1.78-1.61C4.82,27.31,5.42,26.77,5.82,26.11z
			"/>
		<polygon fill="#1DABC1" points="23.96,30.51 23.86,31.12 23.75,30.49 21.42,21.46 19.42,21.46 17.07,30.51 17.01,30.86 
			16.95,30.51 15.24,21.46 12.5,21.46 15.67,35.85 18.04,35.85 20.31,27.15 20.4,26.57 20.5,27.17 22.8,35.85 25.16,35.85 
			28.33,21.46 25.59,21.46 	"/>
		<path fill="#1DABC1" d="M41.18,23.31c-0.48-0.66-1.09-1.17-1.81-1.54c-0.72-0.36-1.55-0.55-2.47-0.55c-0.9,0-1.7,0.16-2.38,0.47
			c-0.5,0.23-0.94,0.54-1.34,0.92l-0.09-1.14h-2.68v19.69h2.9v-6.28c0.38,0.32,0.81,0.58,1.28,0.79c0.67,0.29,1.46,0.42,2.34,0.42
			c0.91,0,1.73-0.18,2.44-0.57c0.71-0.38,1.32-0.9,1.8-1.56c0.48-0.66,0.84-1.44,1.09-2.32c0.24-0.87,0.37-1.83,0.37-2.84v-0.27
			c0-1.05-0.12-2.03-0.37-2.92C42.02,24.73,41.66,23.95,41.18,23.31z M39.74,28.81c0,0.64-0.07,1.28-0.22,1.86
			c-0.14,0.58-0.36,1.1-0.65,1.54c-0.28,0.43-0.65,0.79-1.09,1.03c-0.43,0.25-0.96,0.38-1.57,0.38c-0.72,0-1.33-0.16-1.79-0.48
			c-0.46-0.3-0.83-0.7-1.11-1.18v-6.52c0.28-0.48,0.66-0.9,1.12-1.2c0.47-0.32,1.06-0.49,1.76-0.49c0.62,0,1.15,0.13,1.58,0.38
			c0.44,0.24,0.81,0.59,1.09,1.02c0.29,0.43,0.51,0.95,0.65,1.52c0.14,0.59,0.22,1.22,0.22,1.86V28.81z"/>
		<path fill="#1DABC1" d="M55.08,26.51c-1.12,0-1.96-0.24-2.49-0.75c-0.53-0.49-0.8-1.33-0.8-2.48V21.1c0-0.47-0.04-0.94-0.12-1.42
			c-0.08-0.47-0.2-0.95-0.37-1.4c-0.17-0.46-0.38-0.89-0.65-1.29c-0.26-0.4-0.59-0.76-0.97-1.07c-0.38-0.31-0.82-0.55-1.31-0.73
			c-0.49-0.18-1.05-0.29-1.66-0.3l-0.23-0.01l-0.35,2l0.31,0.01c0.55,0.02,0.99,0.14,1.3,0.39c0.32,0.24,0.57,0.55,0.73,0.94
			c0.17,0.39,0.28,0.85,0.34,1.34c0.05,0.52,0.08,1.04,0.08,1.55v2.18c0,1.07,0.25,2.02,0.74,2.83c0.41,0.66,1,1.2,1.77,1.61
			c-0.77,0.41-1.37,0.94-1.77,1.61c-0.49,0.82-0.74,1.77-0.74,2.82v2.16c0,0.52-0.04,1.03-0.13,1.54c-0.08,0.49-0.23,0.95-0.42,1.34
			c-0.19,0.39-0.45,0.71-0.76,0.95c-0.31,0.24-0.68,0.37-1.15,0.38l-0.31,0.01l0.36,2l0.23,0c0.88-0.02,1.65-0.23,2.29-0.61
			c0.63-0.38,1.17-0.89,1.58-1.49c0.41-0.59,0.72-1.26,0.92-1.98c0.19-0.71,0.29-1.43,0.29-2.14v-2.16c0-1.14,0.27-1.97,0.8-2.48
			c0.53-0.5,1.37-0.76,2.49-0.77l0.27,0v-2.39H55.08z"/>
	</g>
</svg>
